<svg id="svg" version="1.1" xmlns="http://www.w3.org/2000/svg" xmlns:xlink="http://www.w3.org/1999/xlink" width="400" height="87.91208791208791" viewBox="0, 0, 400,87.91208791208791"><g id="svgg"><path id="path0" d="M0.000 32.250 L 0.000 64.500 108.829 64.500 L 217.658 64.500 217.912 64.008 C 218.138 63.573,218.167 59.899,218.167 31.758 L 218.167 0.000 109.083 0.000 L 0.000 0.000 0.000 32.250 M21.987 6.098 L 22.500 6.530 22.500 14.073 C 22.500 23.841,22.217 23.167,26.312 23.167 L 28.635 23.167 29.359 22.579 C 29.757 22.256,30.783 21.337,31.639 20.537 C 32.495 19.738,33.845 18.475,34.639 17.733 C 35.433 16.990,36.721 15.767,37.500 15.016 C 38.279 14.265,39.512 13.147,40.240 12.533 C 40.967 11.919,41.872 11.117,42.250 10.750 C 46.532 6.594,47.343 5.873,47.842 5.773 C 49.460 5.450,66.617 5.663,67.061 6.012 C 67.649 6.475,67.614 6.735,66.907 7.173 C 66.580 7.375,65.757 8.074,65.078 8.728 C 64.398 9.382,63.342 10.329,62.732 10.833 C 60.870 12.371,56.833 15.887,55.937 16.750 C 55.652 17.025,55.238 17.375,55.017 17.528 C 54.672 17.768,53.134 19.158,51.274 20.911 C 50.986 21.183,50.413 21.665,50.000 21.983 C 48.751 22.945,45.965 25.380,43.633 27.550 L 42.516 28.589 42.697 29.304 C 42.805 29.729,43.043 30.133,43.284 30.301 C 43.507 30.456,44.003 30.825,44.386 31.121 C 44.770 31.416,45.477 31.922,45.958 32.244 C 46.440 32.566,46.833 32.899,46.833 32.984 C 46.833 33.070,47.115 33.307,47.458 33.511 C 47.802 33.715,48.308 34.100,48.583 34.366 C 49.148 34.912,50.168 35.707,51.458 36.605 C 51.940 36.940,52.333 37.272,52.333 37.343 C 52.333 37.415,52.615 37.642,52.958 37.850 C 53.302 38.057,53.896 38.494,54.278 38.822 C 54.660 39.149,55.306 39.704,55.713 40.054 C 56.121 40.405,56.708 40.846,57.019 41.034 C 57.329 41.221,57.855 41.609,58.186 41.896 C 58.518 42.182,59.220 42.754,59.748 43.167 C 60.754 43.954,61.976 44.949,63.066 45.869 C 63.424 46.170,63.929 46.546,64.189 46.704 C 64.848 47.105,67.055 48.835,68.961 50.442 C 71.806 52.843,71.892 52.820,60.250 52.816 C 51.004 52.813,50.386 52.772,49.702 52.118 C 49.209 51.645,47.915 50.675,46.542 49.747 C 46.060 49.422,45.667 49.094,45.667 49.017 C 45.667 48.940,45.351 48.668,44.964 48.413 C 44.578 48.157,44.023 47.716,43.730 47.432 C 42.946 46.672,40.617 44.860,39.199 43.906 C 38.712 43.579,38.274 43.205,38.224 43.075 C 38.174 42.946,37.860 42.672,37.525 42.467 C 37.190 42.261,36.680 41.866,36.391 41.588 C 36.101 41.311,35.501 40.800,35.057 40.454 C 34.613 40.108,33.829 39.496,33.314 39.095 C 32.798 38.694,32.064 38.167,31.681 37.925 C 31.298 37.684,30.943 37.378,30.892 37.246 C 30.842 37.115,30.539 36.845,30.220 36.648 C 29.900 36.451,29.464 36.101,29.251 35.870 C 28.578 35.145,25.070 34.901,23.417 35.466 L 22.583 35.750 22.500 43.910 L 22.417 52.070 21.850 52.452 C 20.732 53.206,8.412 52.968,7.927 52.183 C 7.879 52.105,7.831 41.776,7.822 29.229 L 7.804 6.417 8.521 6.042 C 9.226 5.673,9.334 5.667,15.356 5.667 L 21.474 5.667 21.987 6.098 M99.155 6.073 C 99.352 6.251,99.663 6.737,99.848 7.154 C 100.032 7.571,100.327 8.066,100.503 8.253 C 100.678 8.440,100.936 8.916,101.076 9.312 C 101.215 9.707,101.512 10.247,101.735 10.513 C 101.958 10.778,102.302 11.427,102.499 11.956 C 102.695 12.484,103.033 13.104,103.250 13.333 C 103.466 13.563,103.799 14.150,103.991 14.638 C 104.182 15.127,104.554 15.802,104.818 16.138 C 105.081 16.475,105.420 17.133,105.570 17.601 C 105.721 18.069,106.021 18.618,106.237 18.822 C 106.454 19.025,106.761 19.542,106.921 19.970 C 107.081 20.399,107.386 20.985,107.599 21.272 C 107.812 21.559,108.173 22.214,108.400 22.728 C 108.627 23.242,108.994 23.907,109.215 24.206 C 109.436 24.505,109.746 25.087,109.905 25.500 C 110.064 25.912,110.329 26.400,110.494 26.583 C 110.861 26.990,111.249 27.761,111.396 28.372 C 111.456 28.622,111.724 29.077,111.993 29.383 C 112.261 29.689,112.636 30.333,112.826 30.816 C 113.017 31.298,113.390 31.968,113.656 32.305 C 113.922 32.641,114.232 33.234,114.345 33.622 C 114.820 35.248,116.436 34.616,117.214 32.500 C 117.399 31.996,117.719 31.358,117.924 31.083 C 118.129 30.808,118.549 30.111,118.857 29.534 C 119.165 28.957,119.731 27.907,120.115 27.201 C 120.499 26.495,121.054 25.429,121.348 24.833 C 121.642 24.238,122.058 23.560,122.271 23.328 C 122.485 23.096,122.813 22.461,123.000 21.917 C 123.187 21.373,123.521 20.738,123.741 20.506 C 123.962 20.273,124.299 19.684,124.491 19.195 C 124.682 18.707,125.051 18.032,125.311 17.695 C 125.571 17.359,125.917 16.708,126.081 16.250 C 126.245 15.792,126.500 15.281,126.648 15.116 C 126.975 14.749,127.918 13.057,128.817 11.223 C 129.183 10.475,129.568 9.811,129.670 9.748 C 129.773 9.684,130.104 9.096,130.405 8.441 C 130.706 7.786,131.287 6.894,131.696 6.458 L 132.440 5.667 143.501 5.667 L 154.562 5.667 154.948 6.029 L 155.333 6.391 155.333 29.250 L 155.333 52.109 154.936 52.482 L 154.539 52.854 147.921 52.802 L 141.304 52.750 140.985 52.357 C 140.677 51.976,140.667 51.476,140.667 36.632 C 140.667 22.838,140.640 21.243,140.396 20.731 C 139.992 19.878,139.889 19.900,139.355 20.952 C 139.086 21.483,138.685 22.126,138.464 22.382 C 138.242 22.638,137.930 23.210,137.771 23.653 C 137.611 24.097,137.300 24.630,137.079 24.837 C 136.858 25.045,136.479 25.735,136.236 26.370 C 135.993 27.005,135.693 27.564,135.568 27.612 C 135.444 27.660,135.109 28.192,134.825 28.795 C 134.540 29.397,134.134 30.121,133.923 30.403 C 133.712 30.686,133.488 31.083,133.426 31.287 C 133.364 31.491,133.050 32.041,132.728 32.509 C 132.406 32.978,132.035 33.663,131.905 34.033 C 131.775 34.402,131.451 34.951,131.186 35.254 C 130.921 35.556,130.583 36.166,130.435 36.610 C 130.288 37.054,129.971 37.642,129.732 37.917 C 129.493 38.192,129.115 38.827,128.892 39.328 C 128.669 39.829,128.377 40.360,128.242 40.509 C 128.108 40.657,127.768 41.252,127.488 41.832 C 127.207 42.411,126.804 43.117,126.591 43.401 C 126.379 43.685,126.155 44.083,126.093 44.287 C 126.031 44.491,125.717 45.041,125.395 45.509 C 125.072 45.978,124.699 46.673,124.564 47.055 C 124.430 47.437,124.093 48.033,123.815 48.380 C 123.537 48.726,123.199 49.335,123.064 49.732 C 122.928 50.129,122.687 50.596,122.528 50.769 C 122.369 50.942,122.014 51.420,121.739 51.831 C 121.090 52.804,121.036 52.812,115.241 52.824 L 110.565 52.833 109.797 52.346 C 109.199 51.967,108.918 51.626,108.524 50.805 C 108.246 50.225,107.829 49.494,107.597 49.181 C 107.365 48.869,107.090 48.344,106.986 48.015 C 106.882 47.686,106.570 47.127,106.292 46.772 C 106.014 46.418,105.641 45.743,105.464 45.272 C 105.286 44.802,104.970 44.229,104.760 44.000 C 104.550 43.771,104.176 43.134,103.930 42.584 C 103.683 42.034,103.340 41.434,103.168 41.250 C 102.996 41.067,102.695 40.542,102.499 40.084 C 102.303 39.625,101.958 39.008,101.732 38.711 C 101.505 38.415,101.208 37.854,101.071 37.466 C 100.934 37.077,100.679 36.607,100.504 36.421 C 100.329 36.235,99.981 35.633,99.731 35.083 C 99.480 34.533,99.070 33.821,98.818 33.500 C 98.567 33.179,98.268 32.597,98.154 32.207 C 98.040 31.817,97.707 31.217,97.415 30.874 C 97.123 30.531,96.797 29.988,96.692 29.667 C 96.586 29.346,96.200 28.642,95.833 28.103 C 95.467 27.563,95.167 27.031,95.167 26.919 C 95.167 26.808,94.944 26.410,94.673 26.035 C 94.401 25.660,93.964 24.880,93.701 24.302 C 93.438 23.723,93.106 23.154,92.963 23.037 C 92.820 22.919,92.537 22.378,92.333 21.833 C 91.932 20.761,91.673 20.444,91.309 20.584 C 90.570 20.867,90.586 20.542,90.536 36.776 C 90.499 48.586,90.442 52.172,90.286 52.294 C 89.725 52.732,88.305 52.833,82.713 52.833 C 76.639 52.833,76.461 52.814,75.961 52.093 C 75.894 51.996,75.837 41.667,75.836 29.139 L 75.833 6.361 76.292 6.016 C 76.985 5.493,98.575 5.547,99.155 6.073 M180.390 6.044 L 181.031 6.417 181.011 22.500 C 180.989 40.131,180.985 40.045,181.923 40.472 C 182.237 40.616,186.208 40.667,197.021 40.667 L 211.692 40.667 212.190 41.165 L 212.688 41.663 212.636 46.846 L 212.583 52.029 212.114 52.433 L 211.644 52.837 189.501 52.793 L 167.358 52.750 166.887 52.399 L 166.417 52.047 166.417 29.239 L 166.417 6.430 166.983 6.048 C 167.860 5.457,179.375 5.454,180.390 6.044 " stroke="none" fill="#0a68fb" fill-rule="evenodd"></path><path id="path1" d="M8.521 6.042 L 7.804 6.417 7.822 29.229 C 7.831 41.776,7.879 52.105,7.927 52.183 C 8.412 52.968,20.732 53.206,21.850 52.452 L 22.417 52.070 22.500 43.910 L 22.583 35.750 23.417 35.466 C 25.070 34.901,28.578 35.145,29.251 35.870 C 29.464 36.101,29.900 36.451,30.220 36.648 C 30.539 36.845,30.842 37.115,30.892 37.246 C 30.943 37.378,31.298 37.684,31.681 37.925 C 32.064 38.167,32.798 38.694,33.314 39.095 C 33.829 39.496,34.613 40.108,35.057 40.454 C 35.501 40.800,36.101 41.311,36.391 41.588 C 36.680 41.866,37.190 42.261,37.525 42.467 C 37.860 42.672,38.174 42.946,38.224 43.075 C 38.274 43.205,38.712 43.579,39.199 43.906 C 40.617 44.860,42.946 46.672,43.730 47.432 C 44.023 47.716,44.578 48.157,44.964 48.413 C 45.351 48.668,45.667 48.940,45.667 49.017 C 45.667 49.094,46.060 49.422,46.542 49.747 C 47.915 50.675,49.209 51.645,49.702 52.118 C 50.386 52.772,51.004 52.813,60.250 52.816 C 70.630 52.819,71.571 52.692,70.167 51.474 C 67.899 49.506,65.027 47.214,64.189 46.704 C 63.929 46.546,63.424 46.170,63.066 45.869 C 61.976 44.949,60.754 43.954,59.748 43.167 C 59.220 42.754,58.518 42.182,58.186 41.896 C 57.855 41.609,57.329 41.221,57.019 41.034 C 56.708 40.846,56.121 40.405,55.713 40.054 C 55.306 39.704,54.660 39.149,54.278 38.822 C 53.896 38.494,53.302 38.057,52.958 37.850 C 52.615 37.642,52.333 37.415,52.333 37.343 C 52.333 37.272,51.940 36.940,51.458 36.605 C 50.168 35.707,49.148 34.912,48.583 34.366 C 48.308 34.100,47.802 33.715,47.458 33.511 C 47.115 33.307,46.833 33.070,46.833 32.984 C 46.833 32.899,46.440 32.566,45.958 32.244 C 45.477 31.922,44.770 31.416,44.386 31.121 C 44.003 30.825,43.507 30.456,43.284 30.301 C 43.043 30.133,42.805 29.729,42.697 29.304 L 42.516 28.589 43.633 27.550 C 45.965 25.380,48.751 22.945,50.000 21.983 C 50.413 21.665,50.986 21.183,51.274 20.911 C 53.134 19.158,54.672 17.768,55.017 17.528 C 55.238 17.375,55.652 17.025,55.937 16.750 C 56.833 15.887,60.870 12.371,62.732 10.833 C 63.342 10.329,64.398 9.382,65.078 8.728 C 65.757 8.074,66.580 7.375,66.907 7.173 C 67.614 6.735,67.649 6.475,67.061 6.012 C 66.617 5.663,49.460 5.450,47.842 5.773 C 47.343 5.873,46.532 6.594,42.250 10.750 C 41.872 11.117,40.967 11.919,40.240 12.533 C 39.512 13.147,38.279 14.265,37.500 15.016 C 36.721 15.767,35.433 16.990,34.639 17.733 C 33.845 18.475,32.495 19.738,31.639 20.537 C 30.783 21.337,29.757 22.256,29.359 22.579 L 28.635 23.167 26.312 23.167 C 22.217 23.167,22.500 23.841,22.500 14.073 L 22.500 6.530 21.987 6.098 L 21.474 5.667 15.356 5.667 C 9.334 5.667,9.226 5.673,8.521 6.042 M76.292 6.016 L 75.833 6.361 75.836 29.139 C 75.837 41.667,75.894 51.996,75.961 52.093 C 76.461 52.814,76.639 52.833,82.713 52.833 C 88.305 52.833,89.725 52.732,90.286 52.294 C 90.442 52.172,90.499 48.586,90.536 36.776 C 90.586 20.542,90.570 20.867,91.309 20.584 C 91.673 20.444,91.932 20.761,92.333 21.833 C 92.537 22.378,92.820 22.919,92.963 23.037 C 93.106 23.154,93.438 23.723,93.701 24.302 C 93.964 24.880,94.401 25.660,94.673 26.035 C 94.944 26.410,95.167 26.808,95.167 26.919 C 95.167 27.031,95.467 27.563,95.833 28.103 C 96.200 28.642,96.586 29.346,96.692 29.667 C 96.797 29.988,97.123 30.531,97.415 30.874 C 97.707 31.217,98.040 31.817,98.154 32.207 C 98.268 32.597,98.567 33.179,98.818 33.500 C 99.070 33.821,99.480 34.533,99.731 35.083 C 99.981 35.633,100.329 36.235,100.504 36.421 C 100.679 36.607,100.934 37.077,101.071 37.466 C 101.208 37.854,101.505 38.415,101.732 38.711 C 101.958 39.008,102.303 39.625,102.499 40.084 C 102.695 40.542,102.996 41.067,103.168 41.250 C 103.340 41.434,103.683 42.034,103.930 42.584 C 104.176 43.134,104.550 43.771,104.760 44.000 C 104.970 44.229,105.286 44.802,105.464 45.272 C 105.641 45.743,106.014 46.418,106.292 46.772 C 106.570 47.127,106.882 47.686,106.986 48.015 C 107.090 48.344,107.365 48.869,107.597 49.181 C 107.829 49.494,108.246 50.225,108.524 50.805 C 108.918 51.626,109.199 51.967,109.797 52.346 L 110.565 52.833 115.241 52.824 C 121.036 52.812,121.090 52.804,121.739 51.831 C 122.014 51.420,122.369 50.942,122.528 50.769 C 122.687 50.596,122.928 50.129,123.064 49.732 C 123.199 49.335,123.537 48.726,123.815 48.380 C 124.093 48.033,124.430 47.437,124.564 47.055 C 124.699 46.673,125.072 45.978,125.395 45.509 C 125.717 45.041,126.031 44.491,126.093 44.287 C 126.155 44.083,126.379 43.685,126.591 43.401 C 126.804 43.117,127.207 42.411,127.488 41.832 C 127.768 41.252,128.108 40.657,128.242 40.509 C 128.377 40.360,128.669 39.829,128.892 39.328 C 129.115 38.827,129.493 38.192,129.732 37.917 C 129.971 37.642,130.288 37.054,130.435 36.610 C 130.583 36.166,130.921 35.556,131.186 35.254 C 131.451 34.951,131.775 34.402,131.905 34.033 C 132.035 33.663,132.406 32.978,132.728 32.509 C 133.050 32.041,133.364 31.491,133.426 31.287 C 133.488 31.083,133.712 30.686,133.923 30.403 C 134.134 30.121,134.540 29.397,134.825 28.795 C 135.109 28.192,135.444 27.660,135.568 27.612 C 135.693 27.564,135.993 27.005,136.236 26.370 C 136.479 25.735,136.858 25.045,137.079 24.837 C 137.300 24.630,137.611 24.097,137.771 23.653 C 137.930 23.210,138.242 22.638,138.464 22.382 C 138.685 22.126,139.086 21.483,139.355 20.952 C 139.889 19.900,139.992 19.878,140.396 20.731 C 140.640 21.243,140.667 22.838,140.667 36.632 C 140.667 51.476,140.677 51.976,140.985 52.357 L 141.304 52.750 147.921 52.802 L 154.539 52.854 154.936 52.482 L 155.333 52.109 155.333 29.250 L 155.333 6.391 154.948 6.029 L 154.562 5.667 143.501 5.667 L 132.440 5.667 131.696 6.458 C 131.287 6.894,130.706 7.786,130.405 8.441 C 130.104 9.096,129.773 9.684,129.670 9.748 C 129.568 9.811,129.183 10.475,128.817 11.223 C 127.918 13.057,126.975 14.749,126.648 15.116 C 126.500 15.281,126.245 15.792,126.081 16.250 C 125.917 16.708,125.571 17.359,125.311 17.695 C 125.051 18.032,124.682 18.707,124.491 19.195 C 124.299 19.684,123.962 20.273,123.741 20.506 C 123.521 20.738,123.187 21.373,123.000 21.917 C 122.813 22.461,122.485 23.096,122.271 23.328 C 122.058 23.560,121.642 24.238,121.348 24.833 C 121.054 25.429,120.499 26.495,120.115 27.201 C 119.731 27.907,119.165 28.957,118.857 29.534 C 118.549 30.111,118.129 30.808,117.924 31.083 C 117.719 31.358,117.399 31.996,117.214 32.500 C 116.436 34.616,114.820 35.248,114.345 33.622 C 114.232 33.234,113.922 32.641,113.656 32.305 C 113.390 31.968,113.017 31.298,112.826 30.816 C 112.636 30.333,112.261 29.689,111.993 29.383 C 111.724 29.077,111.456 28.622,111.396 28.372 C 111.249 27.761,110.861 26.990,110.494 26.583 C 110.329 26.400,110.064 25.912,109.905 25.500 C 109.746 25.087,109.436 24.505,109.215 24.206 C 108.994 23.907,108.627 23.242,108.400 22.728 C 108.173 22.214,107.812 21.559,107.599 21.272 C 107.386 20.985,107.081 20.399,106.921 19.970 C 106.761 19.542,106.454 19.025,106.237 18.822 C 106.021 18.618,105.721 18.069,105.570 17.601 C 105.420 17.133,105.081 16.475,104.818 16.138 C 104.554 15.802,104.182 15.127,103.991 14.638 C 103.799 14.150,103.466 13.563,103.250 13.333 C 103.033 13.104,102.695 12.484,102.499 11.956 C 102.302 11.427,101.958 10.778,101.735 10.513 C 101.512 10.247,101.215 9.707,101.076 9.312 C 100.936 8.916,100.678 8.440,100.503 8.253 C 100.327 8.066,100.032 7.571,99.848 7.154 C 99.171 5.625,100.260 5.755,87.774 5.710 C 76.850 5.671,76.746 5.674,76.292 6.016 M166.983 6.048 L 166.417 6.430 166.417 29.239 L 166.417 52.047 166.887 52.399 L 167.358 52.750 189.501 52.793 L 211.644 52.837 212.114 52.433 L 212.583 52.029 212.636 46.846 L 212.688 41.663 212.190 41.165 L 211.692 40.667 197.021 40.667 C 186.208 40.667,182.237 40.616,181.923 40.472 C 180.985 40.045,180.989 40.131,181.011 22.500 L 181.031 6.417 180.390 6.044 C 179.375 5.454,167.860 5.457,166.983 6.048 M229.000 29.779 C 228.862 29.831,228.383 30.104,227.934 30.386 C 227.485 30.669,226.896 31.016,226.625 31.158 C 225.215 31.899,224.413 36.912,225.340 39.194 C 226.386 41.769,226.878 42.103,229.860 42.256 C 232.004 42.366,234.683 42.743,235.917 43.108 C 236.462 43.269,238.027 43.399,240.438 43.483 C 244.818 43.637,245.024 43.704,245.614 45.175 L 245.979 46.083 245.631 46.454 C 244.817 47.322,244.335 47.376,238.019 47.309 C 231.636 47.240,231.596 47.234,231.064 46.185 C 230.962 45.984,230.656 45.654,230.384 45.451 C 230.111 45.249,229.758 44.952,229.599 44.792 C 229.295 44.485,226.860 44.375,225.467 44.605 C 224.204 44.814,224.265 47.498,225.578 49.419 C 226.546 50.837,226.402 50.744,228.333 51.182 C 229.204 51.380,230.142 51.661,230.417 51.807 C 231.260 52.257,246.397 52.214,247.090 51.761 C 247.361 51.583,248.108 51.273,248.750 51.072 C 249.692 50.776,249.961 50.613,250.146 50.228 C 250.272 49.965,250.592 49.520,250.857 49.239 C 252.057 47.968,252.039 42.901,250.830 41.583 C 250.577 41.308,250.254 40.852,250.112 40.569 C 249.778 39.905,247.476 39.386,244.333 39.266 C 243.040 39.217,241.967 39.085,241.503 38.920 C 240.953 38.724,239.668 38.614,236.636 38.502 C 232.081 38.334,231.675 38.243,231.351 37.314 C 230.897 36.009,231.478 34.512,232.446 34.495 C 232.613 34.492,233.162 34.344,233.667 34.167 C 235.051 33.680,240.395 33.684,242.079 34.174 C 244.699 34.936,244.555 34.861,244.976 35.688 L 245.368 36.460 246.693 36.576 C 249.700 36.838,251.333 36.389,251.334 35.300 C 251.336 34.038,250.057 31.386,249.333 31.150 C 249.012 31.046,248.188 30.688,247.500 30.355 L 246.250 29.750 237.750 29.718 C 233.075 29.700,229.137 29.728,229.000 29.779 M259.917 36.761 C 259.092 36.878,258.361 36.980,258.292 36.987 C 257.986 37.019,256.777 38.291,256.469 38.905 C 256.282 39.278,255.969 39.758,255.773 39.972 C 255.225 40.569,255.221 47.423,255.767 48.028 C 255.960 48.242,256.369 48.881,256.675 49.448 C 257.279 50.565,257.346 50.609,259.667 51.424 C 261.694 52.136,262.347 52.205,266.333 52.132 C 269.711 52.071,270.149 52.030,270.750 51.721 C 271.117 51.532,271.829 51.278,272.333 51.157 C 273.618 50.847,274.957 49.528,275.108 48.424 C 275.272 47.228,275.150 47.167,272.611 47.167 L 270.430 47.167 269.757 47.899 L 269.083 48.631 267.586 48.755 C 264.774 48.988,261.692 48.663,261.124 48.073 C 260.288 47.205,260.268 45.419,261.091 45.104 C 261.239 45.047,264.389 45.000,268.091 45.000 C 275.999 45.000,275.167 45.317,275.166 42.303 C 275.165 39.831,274.997 39.150,274.195 38.356 C 273.859 38.023,273.508 37.616,273.417 37.452 C 272.935 36.591,264.237 36.146,259.917 36.761 M288.833 36.615 C 287.548 36.830,286.545 37.246,285.861 37.847 C 284.963 38.638,284.912 38.642,284.509 37.958 C 283.889 36.904,283.740 36.833,282.145 36.833 C 281.341 36.833,280.491 36.920,280.258 37.027 L 279.833 37.220 279.833 43.918 C 279.833 51.827,279.662 51.213,281.892 51.307 C 283.075 51.357,283.308 51.318,283.699 51.011 L 284.148 50.657 284.199 47.287 C 284.243 44.369,284.292 43.838,284.563 43.333 C 284.736 43.012,285.053 42.396,285.270 41.964 C 285.793 40.916,286.134 40.732,288.000 40.495 C 290.930 40.122,293.024 40.508,293.878 41.578 C 294.662 42.561,294.719 42.885,294.796 46.833 C 294.884 51.356,294.777 51.088,296.549 51.224 C 298.346 51.362,299.609 51.040,299.768 50.403 C 300.089 49.123,299.720 41.762,299.287 40.817 C 299.052 40.303,298.778 39.580,298.678 39.210 C 298.564 38.784,298.329 38.429,298.040 38.243 C 297.789 38.082,297.396 37.737,297.167 37.476 C 296.504 36.723,291.366 36.192,288.833 36.615 M308.917 36.584 C 308.825 36.615,308.300 36.691,307.750 36.752 C 306.185 36.925,305.100 38.104,304.942 39.802 C 304.792 41.420,304.974 43.258,305.315 43.568 C 305.463 43.702,305.867 44.079,306.214 44.406 C 306.561 44.733,306.861 45.007,306.881 45.016 C 306.900 45.025,308.192 45.094,309.750 45.170 C 315.674 45.459,317.761 45.860,318.919 46.934 C 320.255 48.171,317.999 48.955,313.583 48.787 C 311.006 48.688,310.663 48.600,309.550 47.751 C 308.791 47.171,308.772 47.167,307.084 47.167 C 304.165 47.167,303.882 47.524,304.984 49.816 C 305.413 50.708,305.427 50.719,306.667 51.093 C 307.354 51.300,308.179 51.607,308.500 51.776 C 309.033 52.057,309.562 52.083,314.583 52.083 L 320.083 52.083 321.000 51.628 C 321.504 51.377,322.157 51.125,322.450 51.067 C 324.241 50.714,324.829 45.313,323.200 44.188 C 322.983 44.039,322.568 43.720,322.278 43.480 C 321.528 42.859,321.194 42.817,315.912 42.684 C 310.460 42.546,310.522 42.564,310.210 40.985 C 309.908 39.458,311.142 39.025,315.305 39.199 C 317.218 39.280,317.699 39.438,318.304 40.187 L 318.691 40.667 320.895 40.667 C 322.388 40.667,323.165 40.602,323.300 40.467 C 323.615 40.151,323.552 38.593,323.208 38.222 C 322.126 37.052,321.914 36.953,320.045 36.732 C 318.462 36.545,309.381 36.424,308.917 36.584 M332.250 36.801 L 330.417 37.089 329.542 37.949 C 328.395 39.079,328.277 39.629,328.262 43.917 C 328.242 49.593,328.620 50.465,331.406 51.168 C 332.133 51.352,332.921 51.633,333.156 51.793 C 333.875 52.281,342.812 52.228,343.750 51.729 C 344.117 51.534,344.933 51.258,345.565 51.115 C 348.075 50.548,348.544 49.602,348.634 44.924 C 348.751 38.844,348.136 37.416,345.167 36.874 C 343.080 36.493,334.519 36.444,332.250 36.801 M362.250 36.583 C 362.158 36.614,361.810 36.685,361.475 36.741 C 361.141 36.797,360.611 37.015,360.299 37.227 C 359.555 37.733,358.279 37.920,357.986 37.567 C 357.408 36.870,354.256 36.477,353.700 37.033 C 353.397 37.337,353.415 50.487,353.719 50.903 C 353.954 51.224,357.961 51.261,358.278 50.945 C 358.354 50.869,358.458 48.919,358.508 46.612 C 358.628 41.066,358.699 40.909,361.271 40.495 C 363.311 40.167,364.751 40.569,365.227 41.601 C 365.677 42.575,366.690 43.000,368.566 43.000 L 370.017 43.000 370.259 42.422 C 371.225 40.108,369.968 37.280,367.736 36.747 C 366.866 36.539,362.742 36.416,362.250 36.583 M377.833 36.668 C 375.776 37.019,375.787 37.012,374.939 38.765 C 374.051 40.602,373.974 41.334,374.548 42.501 C 375.641 44.725,376.368 45.167,378.937 45.167 C 386.052 45.167,390.388 46.700,388.100 48.408 C 387.674 48.726,387.416 48.749,384.363 48.741 C 380.570 48.731,379.912 48.603,379.260 47.749 L 378.816 47.167 376.608 47.167 C 374.081 47.167,374.000 47.204,374.000 48.368 C 374.000 49.029,374.088 49.264,374.503 49.710 C 374.780 50.007,375.163 50.419,375.354 50.625 C 375.545 50.831,375.806 51.000,375.933 51.000 C 376.276 51.000,378.213 51.681,378.484 51.897 C 378.645 52.026,380.421 52.083,384.234 52.083 L 389.750 52.083 390.750 51.619 C 393.815 50.197,393.833 50.172,393.833 47.396 C 393.833 44.861,393.755 44.552,393.019 44.176 C 392.688 44.007,392.274 43.711,392.099 43.517 C 391.567 42.930,390.611 42.803,385.835 42.691 C 380.393 42.563,380.088 42.484,379.695 41.093 C 379.266 39.574,380.563 39.075,384.634 39.197 C 386.853 39.263,387.001 39.306,388.316 40.257 C 388.917 40.692,390.968 40.814,392.833 40.526 L 393.583 40.411 393.534 39.631 C 393.496 39.023,393.368 38.727,392.951 38.283 C 392.657 37.970,392.304 37.557,392.167 37.365 C 391.663 36.661,380.924 36.139,377.833 36.668 M268.920 39.516 C 270.013 40.040,270.282 41.899,269.333 42.374 C 268.378 42.852,261.727 42.810,261.106 42.321 C 260.464 41.816,260.624 40.490,261.406 39.842 C 262.207 39.178,267.716 38.939,268.920 39.516 M341.476 40.493 C 342.608 40.657,343.044 40.936,343.439 41.747 C 343.574 42.023,343.835 42.512,344.018 42.833 C 344.648 43.934,344.025 46.130,342.802 47.119 C 340.906 48.653,335.241 48.497,333.788 46.872 C 332.654 45.603,332.320 43.557,333.067 42.457 C 333.287 42.133,333.517 41.708,333.579 41.513 C 333.898 40.510,337.961 39.985,341.476 40.493 M109.889 73.322 C 108.497 73.549,107.883 75.514,108.583 77.500 C 108.882 78.348,108.902 79.344,108.642 80.471 C 108.405 81.497,108.742 82.207,109.700 82.704 C 110.704 83.225,117.438 83.357,118.521 82.878 C 120.665 81.930,120.998 77.994,119.004 77.168 C 118.367 76.905,118.374 76.834,119.082 76.376 C 120.303 75.585,120.061 73.912,118.662 73.473 C 117.704 73.173,111.461 73.065,109.889 73.322 M198.029 73.506 L 197.475 73.844 197.529 78.166 C 197.591 83.079,197.595 83.094,198.842 83.044 C 199.888 83.002,200.133 82.870,200.249 82.284 C 200.586 80.576,200.815 80.456,203.623 80.528 C 206.100 80.591,206.356 80.705,206.697 81.902 C 206.966 82.845,207.092 82.968,207.911 83.091 C 209.280 83.296,209.820 82.211,209.192 80.519 C 208.933 79.822,208.935 79.682,209.230 78.166 C 209.565 76.449,209.507 74.296,209.112 73.766 C 208.591 73.066,199.115 72.844,198.029 73.506 M230.426 73.537 C 230.280 73.745,230.167 74.251,230.167 74.693 C 230.167 76.205,229.564 77.159,228.888 76.716 C 227.488 75.799,223.807 76.312,222.869 77.556 L 222.219 78.417 222.318 79.849 C 222.483 82.247,223.493 83.076,226.250 83.078 C 228.040 83.079,228.667 82.885,228.667 82.327 C 228.667 81.887,229.350 81.888,229.625 82.328 C 230.082 83.060,231.881 83.341,232.453 82.769 C 232.762 82.461,232.707 73.917,232.395 73.647 C 231.838 73.165,230.730 73.103,230.426 73.537 M248.833 73.290 C 248.053 73.383,247.739 73.701,247.507 74.635 C 247.375 75.164,247.089 75.645,246.623 76.123 L 245.934 76.830 246.456 77.572 C 247.087 78.466,247.331 79.279,247.334 80.500 C 247.341 82.594,247.791 83.407,248.712 82.987 C 249.188 82.770,249.332 82.280,249.337 80.854 C 249.343 79.091,249.657 78.311,250.560 77.818 C 252.071 76.994,252.067 76.818,250.516 75.966 C 249.858 75.604,249.860 75.227,250.523 74.867 C 252.707 73.681,251.896 72.924,248.833 73.290 M288.500 73.471 L 287.750 73.758 287.699 74.753 C 287.614 76.402,287.387 76.537,284.924 76.403 C 282.537 76.273,281.733 76.437,281.195 77.164 C 280.607 77.959,279.339 77.902,278.457 77.042 L 277.817 76.417 275.197 76.358 C 270.787 76.260,269.833 76.871,269.833 79.793 C 269.833 81.405,269.761 81.256,271.104 82.410 C 272.423 83.544,277.119 83.484,278.308 82.319 C 279.324 81.323,280.460 81.421,281.612 82.603 C 282.094 83.097,283.750 83.253,285.654 82.984 C 286.761 82.827,287.426 82.819,288.277 82.951 C 290.123 83.239,290.069 83.376,290.143 78.235 C 290.217 73.025,290.154 72.839,288.500 73.471 M253.845 73.646 C 253.605 74.094,254.114 74.500,254.917 74.500 C 255.719 74.500,256.229 74.094,255.989 73.646 C 255.857 73.399,255.631 73.333,254.917 73.333 C 254.203 73.333,253.976 73.399,253.845 73.646 M115.833 74.976 C 117.535 75.637,116.485 76.500,113.979 76.500 L 112.162 76.500 111.837 75.965 C 111.540 75.477,111.534 75.405,111.773 75.141 C 112.228 74.638,114.705 74.538,115.833 74.976 M205.492 75.722 C 206.042 75.866,206.314 76.054,206.542 76.446 L 206.850 76.976 206.368 77.516 L 205.885 78.056 203.618 78.133 L 201.351 78.210 200.842 77.701 C 200.220 77.079,200.202 76.681,200.765 76.013 L 201.196 75.500 202.973 75.513 C 203.950 75.521,205.084 75.615,205.492 75.722 M123.733 76.505 C 122.829 76.782,121.669 78.191,121.651 79.035 C 121.610 80.943,121.664 81.238,122.121 81.583 C 122.363 81.767,122.834 82.157,123.167 82.450 C 123.878 83.077,125.656 83.304,128.196 83.093 L 129.611 82.975 130.553 82.090 C 131.612 81.097,131.658 80.451,130.700 80.001 L 130.250 79.790 130.684 79.639 C 131.122 79.487,131.500 78.895,131.500 78.361 C 131.500 78.201,131.122 77.699,130.660 77.244 L 129.821 76.417 127.035 76.382 C 125.503 76.363,124.017 76.418,123.733 76.505 M133.747 76.565 C 133.441 76.789,133.417 77.010,133.417 79.648 C 133.417 83.061,133.508 83.273,134.855 82.982 C 135.703 82.798,135.827 82.530,135.831 80.870 C 135.837 78.802,137.542 77.791,139.356 78.779 C 140.472 79.386,140.500 79.438,140.617 81.094 C 140.744 82.889,140.986 83.242,141.898 82.962 C 143.361 82.513,143.120 78.622,141.511 76.722 C 141.275 76.443,139.299 76.268,138.193 76.427 C 137.194 76.570,135.854 76.566,134.746 76.415 C 134.300 76.355,133.966 76.405,133.747 76.565 M146.420 76.559 C 145.554 76.820,145.096 77.862,145.350 78.992 C 145.446 79.420,145.451 80.020,145.362 80.511 C 145.012 82.434,146.119 83.083,149.750 83.083 C 153.102 83.083,153.196 83.058,153.645 82.013 C 154.104 80.947,153.849 78.275,153.167 77.001 C 152.829 76.369,148.082 76.058,146.420 76.559 M157.528 76.494 C 156.251 76.808,155.521 77.967,155.385 79.899 L 155.287 81.281 155.935 81.756 C 156.292 82.017,156.794 82.423,157.053 82.657 C 157.799 83.335,163.027 83.317,164.168 82.633 C 166.018 81.523,166.069 77.588,164.245 76.667 C 163.684 76.383,158.518 76.250,157.528 76.494 M168.083 76.445 C 167.362 76.642,167.333 76.763,167.350 79.479 C 167.371 82.854,167.380 82.883,168.424 83.033 C 169.545 83.195,169.677 83.027,169.774 81.313 C 169.876 79.509,169.941 79.226,170.338 78.829 C 170.745 78.422,172.061 78.382,172.942 78.750 C 174.678 79.475,175.930 78.809,175.243 77.525 C 174.738 76.583,174.010 76.290,172.500 76.422 C 170.859 76.565,170.254 76.571,169.250 76.452 C 168.792 76.398,168.267 76.395,168.083 76.445 M178.576 77.101 C 177.767 77.982,177.687 78.347,178.108 79.232 C 178.364 79.768,178.364 79.849,178.108 80.388 C 177.722 81.203,177.738 81.255,178.657 82.189 L 179.482 83.027 181.373 83.120 C 183.922 83.245,185.444 83.075,185.806 82.625 C 185.959 82.436,186.297 82.049,186.558 81.765 C 187.132 81.143,187.095 80.349,186.438 79.160 C 186.212 78.751,185.975 78.063,185.912 77.630 C 185.741 76.460,185.689 76.442,182.310 76.362 L 179.319 76.292 178.576 77.101 M213.994 76.487 C 211.499 76.976,211.572 81.982,214.088 82.878 C 215.029 83.213,218.858 83.200,219.707 82.860 C 221.245 82.242,221.928 80.857,221.103 80.032 C 220.902 79.831,220.913 79.754,221.180 79.486 C 222.071 78.596,221.239 76.822,219.783 76.507 C 218.907 76.317,214.933 76.303,213.994 76.487 M236.889 76.453 C 236.520 76.499,236.131 76.765,235.597 77.336 L 234.833 78.152 234.833 79.678 L 234.833 81.203 235.789 82.143 L 236.744 83.083 239.600 83.083 L 242.456 83.083 243.269 82.342 C 243.717 81.935,244.143 81.504,244.216 81.386 C 244.382 81.115,244.011 79.834,243.765 79.831 C 243.663 79.829,243.679 79.768,243.803 79.689 C 244.870 79.013,244.361 77.468,242.767 76.548 C 242.432 76.354,238.217 76.286,236.889 76.453 M253.913 76.611 C 253.515 77.009,253.603 82.508,254.014 82.919 C 254.442 83.347,255.865 83.047,256.018 82.497 C 256.273 81.582,256.183 76.873,255.905 76.595 C 255.548 76.238,254.275 76.248,253.913 76.611 M259.200 76.492 C 258.897 76.567,258.601 76.677,258.541 76.737 C 258.365 76.912,258.283 79.872,258.411 81.405 L 258.528 82.812 259.305 82.978 C 260.420 83.216,260.591 83.005,260.728 81.231 C 260.865 79.452,260.941 79.312,262.078 78.774 C 264.145 77.795,265.500 78.739,265.500 81.159 C 265.500 82.825,265.551 82.906,266.692 83.055 C 267.756 83.193,267.842 83.038,267.954 80.781 C 268.070 78.426,268.000 78.145,267.079 77.237 C 266.009 76.182,263.191 75.918,262.055 76.767 C 261.597 77.109,261.576 77.110,261.168 76.811 C 260.650 76.431,259.921 76.313,259.200 76.492 M162.337 77.963 C 164.147 80.198,161.710 82.817,159.272 81.257 C 157.951 80.412,157.762 79.259,158.762 78.153 C 159.408 77.440,161.810 77.312,162.337 77.963 M229.012 77.948 C 229.106 78.195,229.318 78.492,229.485 78.608 C 230.400 79.249,230.213 80.427,229.110 80.967 C 228.866 81.087,228.667 81.323,228.667 81.491 C 228.667 82.385,226.629 81.970,225.671 80.882 C 224.886 79.990,224.860 79.765,225.415 78.670 C 225.945 77.624,226.159 77.511,227.629 77.505 C 228.794 77.500,228.848 77.518,229.012 77.948 M286.931 78.190 C 287.805 79.573,287.786 80.221,286.850 81.068 C 286.658 81.242,286.500 81.533,286.500 81.714 C 286.500 82.543,283.376 81.347,282.818 80.305 C 281.803 78.408,285.779 76.364,286.931 78.190 M127.130 78.670 C 127.246 78.855,127.725 79.183,128.196 79.400 C 128.987 79.763,129.026 79.808,128.706 79.979 C 128.516 80.081,128.272 80.430,128.165 80.755 C 127.818 81.807,126.776 82.157,125.681 81.591 C 124.861 81.167,124.906 79.687,125.754 79.186 C 126.077 78.996,126.385 78.726,126.438 78.587 C 126.574 78.234,126.881 78.271,127.130 78.670 M217.733 78.743 C 217.790 78.969,218.009 79.283,218.219 79.442 C 218.607 79.735,218.541 80.356,218.000 81.500 C 217.850 81.818,216.078 81.939,215.736 81.655 C 215.298 81.291,215.710 78.995,216.295 78.542 C 216.785 78.162,217.617 78.278,217.733 78.743 M240.073 78.643 C 240.262 78.813,240.738 79.139,241.131 79.367 C 241.742 79.723,241.809 79.813,241.593 79.992 C 241.455 80.106,241.294 80.458,241.235 80.773 C 241.096 81.513,240.359 81.924,239.301 81.853 C 238.435 81.794,237.552 79.816,238.277 79.559 C 238.714 79.404,239.333 78.815,239.333 78.554 C 239.333 78.241,239.670 78.281,240.073 78.643 M275.172 78.719 C 275.339 78.931,275.782 79.243,276.157 79.412 C 276.760 79.684,276.811 79.749,276.602 79.985 C 276.472 80.131,276.253 80.525,276.114 80.862 C 275.476 82.408,273.275 82.176,273.130 80.546 C 273.039 79.525,273.093 79.392,273.671 79.190 C 273.934 79.098,274.246 78.868,274.365 78.678 C 274.641 78.236,274.798 78.244,275.172 78.719 M92.657 79.261 C 91.809 80.163,92.517 80.500,95.261 80.500 C 97.803 80.500,98.330 80.269,97.828 79.376 L 97.583 78.941 95.282 78.929 C 93.163 78.918,92.954 78.944,92.657 79.261 M116.933 79.221 C 117.292 79.531,117.361 79.699,117.273 80.052 C 116.892 81.568,110.833 81.254,110.833 79.718 C 110.833 78.785,115.941 78.369,116.933 79.221 M301.708 79.329 C 300.481 80.083,301.809 80.566,304.845 80.472 C 307.236 80.397,307.755 80.170,307.261 79.417 C 306.925 78.903,302.516 78.833,301.708 79.329 M279.259 79.681 C 279.445 79.982,279.110 80.143,278.667 79.965 C 278.270 79.806,278.266 79.792,278.583 79.661 C 279.044 79.471,279.131 79.473,279.259 79.681 M150.581 80.997 C 151.051 81.516,150.639 81.892,149.715 81.788 C 148.043 81.600,148.246 80.858,150.016 80.692 C 150.162 80.678,150.416 80.815,150.581 80.997 M183.379 81.080 C 183.689 81.297,183.681 81.317,183.193 81.570 C 182.520 81.917,182.114 81.902,181.765 81.517 C 181.143 80.830,182.498 80.463,183.379 81.080 " stroke="none" fill="#f1f5f4" fill-rule="evenodd"></path><path id="path2" d="M218.167 31.758 C 218.167 59.899,218.138 63.573,217.912 64.008 L 217.658 64.500 108.829 64.500 L 0.000 64.500 0.000 76.167 L 0.000 87.833 200.000 87.833 L 400.000 87.833 400.000 76.167 L 400.000 64.500 309.519 64.500 L 219.038 64.500 218.769 64.089 C 218.524 63.715,218.500 60.868,218.500 31.839 C 218.500 10.724,218.444 0.000,218.333 0.000 C 218.223 0.000,218.167 10.697,218.167 31.758 M118.794 72.920 C 120.235 73.348,120.833 74.955,120.085 76.389 C 119.855 76.830,119.866 76.898,120.239 77.389 C 120.460 77.679,120.694 78.132,120.760 78.395 L 120.879 78.873 121.095 78.246 C 121.770 76.282,123.019 75.785,127.097 75.861 L 130.083 75.917 130.949 76.480 C 131.809 77.040,132.486 78.118,132.234 78.525 C 132.177 78.619,132.136 79.366,132.143 80.186 C 132.155 81.401,132.104 81.721,131.870 81.922 C 129.860 83.642,129.847 83.647,126.583 83.647 C 123.491 83.648,123.411 83.619,121.494 81.826 L 120.862 81.235 120.618 81.747 C 119.791 83.482,119.195 83.667,114.439 83.667 C 111.139 83.667,109.307 83.487,108.862 83.120 C 108.215 82.587,107.790 81.288,107.925 80.257 C 108.119 78.783,108.096 78.013,107.833 77.126 C 107.303 75.341,108.057 73.231,109.349 72.888 C 110.518 72.578,117.724 72.603,118.794 72.920 M208.958 72.964 C 209.806 73.448,209.921 73.884,209.867 76.410 C 209.789 80.045,209.790 80.172,209.916 81.500 C 210.156 84.024,207.304 84.675,206.195 82.349 C 205.632 81.169,205.121 80.968,202.852 81.036 L 201.265 81.083 201.007 81.956 C 200.539 83.546,198.862 84.131,197.333 83.239 L 196.750 82.899 196.656 78.408 C 196.554 73.481,196.550 73.503,197.542 72.964 C 198.237 72.585,208.296 72.586,208.958 72.964 M232.679 73.097 L 233.083 73.527 233.083 78.163 C 233.083 82.400,233.057 82.827,232.782 83.131 C 232.364 83.593,230.934 83.757,230.035 83.448 C 229.451 83.246,229.220 83.245,228.472 83.439 C 226.296 84.003,223.747 83.645,222.712 82.629 L 222.000 81.931 221.286 82.631 C 220.352 83.548,219.420 83.729,216.167 83.625 C 213.273 83.532,213.021 83.444,212.232 82.256 C 211.895 81.749,211.555 81.333,211.476 81.333 C 210.952 81.333,211.346 78.352,212.000 77.372 C 213.027 75.835,212.767 75.917,216.650 75.917 C 220.657 75.917,220.855 75.955,221.438 76.836 C 221.966 77.633,221.993 77.637,222.417 76.988 C 223.044 76.026,223.452 75.918,226.558 75.900 C 229.724 75.880,229.660 75.907,229.664 74.617 C 229.667 73.792,229.999 72.928,230.371 72.778 C 231.049 72.506,232.284 72.677,232.679 73.097 M251.655 72.827 C 252.573 73.318,252.393 74.561,251.340 74.997 C 250.740 75.246,250.755 75.493,251.390 75.802 C 252.498 76.342,252.543 77.182,251.508 78.013 C 250.661 78.694,250.371 79.454,250.277 81.244 C 250.191 82.902,250.024 83.173,248.900 83.483 C 247.378 83.904,246.501 83.092,246.498 81.263 C 246.496 79.772,246.223 78.535,245.714 77.702 L 245.379 77.154 245.202 77.619 C 244.875 78.477,244.683 79.742,244.716 80.809 L 244.750 81.868 243.891 82.659 C 242.901 83.570,242.461 83.670,239.500 83.655 C 236.667 83.642,236.300 83.537,235.242 82.445 L 234.333 81.507 234.333 79.745 C 234.333 77.409,234.864 76.456,236.417 76.003 C 237.500 75.687,242.767 75.840,243.484 76.208 C 244.949 76.962,245.842 76.464,246.870 74.319 C 247.368 73.282,247.596 73.042,248.281 72.836 C 248.936 72.640,251.293 72.633,251.655 72.827 M255.922 72.775 C 256.690 73.070,256.681 74.600,255.909 74.896 C 254.359 75.491,252.803 74.521,253.413 73.340 C 253.742 72.704,254.999 72.421,255.922 72.775 M290.235 73.179 L 290.667 73.692 290.667 78.170 C 290.667 82.595,290.662 82.653,290.285 83.091 L 289.904 83.535 285.910 83.559 C 281.735 83.584,281.424 83.539,280.833 82.826 C 280.397 82.299,279.267 82.341,278.677 82.907 C 277.523 84.012,271.913 84.003,270.737 82.894 C 270.410 82.586,270.075 82.333,269.992 82.333 C 268.842 82.333,269.124 77.627,270.335 76.608 C 271.432 75.684,277.509 75.450,278.641 76.288 C 279.466 76.898,280.386 76.959,280.998 76.444 C 281.674 75.875,282.329 75.772,284.625 75.873 C 286.960 75.976,287.167 75.860,287.167 74.446 C 287.167 72.774,289.191 71.939,290.235 73.179 M113.877 75.453 C 114.131 75.491,114.506 75.490,114.711 75.451 C 114.916 75.411,114.708 75.380,114.250 75.381 C 113.792 75.382,113.624 75.415,113.877 75.453 M141.108 75.968 C 141.409 75.986,141.775 76.159,141.968 76.375 C 142.153 76.581,142.592 77.080,142.944 77.483 L 143.583 78.217 143.582 80.425 C 143.581 82.999,143.486 83.202,142.140 83.490 C 140.777 83.782,140.005 83.223,139.990 81.933 C 139.966 79.745,139.323 78.931,137.772 79.122 C 136.689 79.255,136.518 79.527,136.391 81.322 C 136.261 83.145,136.099 83.395,134.945 83.554 C 133.117 83.804,132.930 83.468,132.859 79.811 L 132.801 76.840 133.276 76.376 L 133.750 75.912 137.167 75.924 C 139.046 75.931,140.819 75.951,141.108 75.968 M152.495 75.992 C 153.393 76.165,153.996 76.785,154.010 77.551 C 154.016 77.844,154.151 78.496,154.311 79.000 L 154.601 79.917 154.910 78.750 C 155.623 76.052,155.897 75.917,160.667 75.917 C 165.608 75.917,165.854 76.083,165.965 79.500 C 166.030 81.518,165.706 82.444,164.700 83.113 C 163.323 84.027,156.167 83.799,156.167 82.840 C 156.167 82.757,156.020 82.643,155.842 82.586 C 155.663 82.529,155.295 82.276,155.024 82.023 L 154.531 81.562 154.168 82.366 C 153.663 83.483,153.469 83.549,150.417 83.634 C 145.323 83.775,144.796 83.397,144.800 79.602 C 144.803 76.771,144.993 76.284,146.209 75.996 C 146.955 75.819,151.583 75.816,152.495 75.992 M174.866 76.130 C 175.461 76.379,175.809 76.940,175.934 77.852 C 176.144 79.388,174.861 80.073,173.000 79.417 C 170.920 78.683,170.415 79.039,170.291 81.326 C 170.181 83.327,169.821 83.771,168.435 83.607 C 167.005 83.437,166.696 82.774,166.678 79.833 C 166.654 75.835,166.633 75.854,171.048 75.904 C 173.088 75.927,174.594 76.016,174.866 76.130 M185.769 76.121 C 186.126 76.324,186.386 76.845,186.580 77.750 C 186.639 78.025,186.862 78.512,187.075 78.833 C 188.186 80.505,187.349 82.983,185.500 83.501 C 184.794 83.699,180.535 83.707,179.528 83.513 C 178.120 83.240,177.042 81.786,177.313 80.523 C 177.425 80.000,177.426 79.493,177.315 79.000 C 177.031 77.737,177.716 76.465,178.917 76.026 C 179.605 75.775,185.296 75.853,185.769 76.121 M256.266 76.184 C 256.555 76.504,256.583 76.822,256.583 79.699 L 256.583 82.862 256.116 83.265 C 255.469 83.821,254.365 83.821,253.718 83.265 L 253.250 82.863 253.193 79.806 C 253.123 76.005,253.197 75.833,254.903 75.833 C 255.754 75.833,256.007 75.898,256.266 76.184 M261.583 76.029 C 261.858 76.019,262.962 75.963,264.036 75.904 C 267.663 75.706,268.417 76.477,268.416 80.379 L 268.415 82.863 267.948 83.265 C 267.282 83.838,265.986 83.834,265.409 83.258 C 265.033 82.881,265.000 82.723,265.000 81.283 C 265.000 79.151,264.051 78.494,262.241 79.373 C 261.458 79.753,261.435 79.810,261.230 81.893 C 261.090 83.308,260.624 83.719,259.343 83.554 C 257.890 83.367,257.833 83.224,257.833 79.753 C 257.833 75.972,258.017 75.683,260.250 75.948 C 260.708 76.003,261.308 76.039,261.583 76.029 M201.099 76.482 C 200.455 77.195,201.075 77.500,203.172 77.500 C 205.864 77.500,206.636 77.231,205.940 76.535 C 205.465 76.060,201.519 76.017,201.099 76.482 M97.961 78.542 C 98.730 79.360,98.677 80.382,97.843 80.828 C 97.078 81.237,92.738 81.038,92.179 80.569 C 91.496 79.994,91.512 79.455,92.233 78.733 L 92.800 78.167 95.204 78.167 C 97.482 78.167,97.627 78.186,97.961 78.542 M159.658 78.576 C 157.769 79.565,158.850 81.053,161.223 80.728 C 162.514 80.551,162.874 78.764,161.685 78.433 C 160.748 78.172,160.378 78.198,159.658 78.576 M226.867 78.288 C 226.410 78.344,226.259 78.478,225.961 79.092 L 225.603 79.827 225.978 80.226 C 226.684 80.978,229.244 80.742,229.569 79.895 C 229.648 79.687,227.800 78.137,227.540 78.193 C 227.472 78.208,227.170 78.251,226.867 78.288 M284.753 78.329 C 284.693 78.426,284.355 78.652,284.001 78.833 C 282.843 79.424,282.927 80.014,284.240 80.513 C 285.876 81.134,287.304 80.470,286.824 79.312 C 286.561 78.676,284.997 77.934,284.753 78.329 M307.402 78.679 C 308.013 79.406,308.030 80.007,307.457 80.625 C 306.730 81.408,301.160 81.107,300.602 80.255 C 299.746 78.948,301.193 78.199,304.610 78.180 L 306.970 78.167 307.402 78.679 M111.779 79.520 C 110.930 80.014,111.902 80.333,114.255 80.333 C 116.608 80.333,117.149 80.165,116.667 79.583 C 116.415 79.281,112.283 79.227,111.779 79.520 " stroke="none" fill="#5b5c5c" fill-rule="evenodd"></path><path id="path3" d="M218.500 31.839 C 218.500 60.868,218.524 63.715,218.769 64.089 L 219.038 64.500 309.519 64.500 L 400.000 64.500 400.000 32.250 L 400.000 0.000 309.250 0.000 L 218.500 0.000 218.500 31.839 M247.667 29.151 C 248.079 29.262,248.604 29.529,248.833 29.744 C 249.063 29.959,249.527 30.249,249.865 30.389 C 250.285 30.561,250.585 30.848,250.811 31.290 C 250.993 31.647,251.272 32.046,251.430 32.178 C 253.112 33.572,252.390 37.612,250.407 37.909 C 249.581 38.033,248.769 38.366,248.592 38.653 C 248.539 38.739,248.907 38.928,249.409 39.074 C 250.015 39.250,250.422 39.485,250.620 39.773 C 250.783 40.011,251.192 40.488,251.529 40.833 C 252.792 42.130,252.829 49.116,251.577 49.936 C 251.360 50.078,251.030 50.454,250.843 50.772 C 250.637 51.120,250.252 51.452,249.876 51.607 C 249.532 51.749,249.086 52.017,248.885 52.202 C 248.117 52.911,247.061 52.995,238.917 52.992 C 230.690 52.990,229.217 52.891,227.918 52.260 C 227.459 52.037,226.733 51.707,226.306 51.526 C 225.878 51.346,225.438 51.022,225.327 50.807 C 225.216 50.592,224.916 50.220,224.660 49.980 C 224.021 49.381,223.835 48.569,223.834 46.367 C 223.833 43.851,223.916 43.764,226.455 43.606 C 229.476 43.418,229.891 43.221,227.917 42.916 C 226.012 42.622,225.663 42.329,224.375 39.954 C 223.697 38.704,223.848 33.226,224.583 32.433 C 224.787 32.212,225.120 31.690,225.322 31.273 C 225.524 30.856,225.834 30.469,226.011 30.413 C 226.188 30.357,226.603 30.057,226.932 29.747 C 227.368 29.335,227.740 29.154,228.307 29.078 C 228.734 29.021,229.158 28.945,229.250 28.911 C 229.707 28.737,246.967 28.962,247.667 29.151 M233.349 35.347 C 232.053 35.515,231.934 35.619,232.077 36.462 C 232.248 37.476,232.507 37.540,237.000 37.676 C 239.154 37.742,241.561 37.849,242.349 37.915 C 243.979 38.052,244.977 37.752,244.741 37.197 C 244.675 37.043,244.532 36.671,244.422 36.370 C 244.312 36.069,244.154 35.754,244.070 35.671 C 243.636 35.241,235.960 35.009,233.349 35.347 M271.093 35.580 C 271.542 35.807,272.304 36.081,272.786 36.189 C 273.269 36.297,273.795 36.531,273.957 36.708 C 274.118 36.885,274.527 37.305,274.866 37.640 C 275.781 38.546,275.878 38.943,275.961 42.095 L 276.036 44.939 275.615 45.428 L 275.194 45.917 268.305 45.917 L 261.417 45.917 261.365 46.278 C 261.192 47.495,262.947 48.088,266.333 47.955 C 268.764 47.860,268.860 47.832,269.215 47.086 C 269.577 46.328,270.212 46.169,272.888 46.168 L 275.026 46.167 275.513 46.654 C 276.769 47.910,275.721 50.668,273.597 51.697 C 273.039 51.968,272.283 52.352,271.917 52.553 C 271.268 52.907,271.095 52.917,265.583 52.917 C 259.441 52.917,259.791 52.961,258.333 51.998 C 258.196 51.907,257.731 51.688,257.301 51.510 C 256.754 51.284,256.434 51.021,256.236 50.635 C 256.081 50.332,255.747 49.846,255.495 49.556 C 254.674 48.614,254.586 48.074,254.586 44.000 C 254.586 39.615,254.620 39.465,256.019 37.740 C 256.956 36.584,257.035 36.528,258.121 36.252 C 259.293 35.954,259.845 35.781,260.833 35.404 C 262.037 34.945,270.111 35.083,271.093 35.580 M294.918 35.559 C 295.377 35.773,296.137 36.040,296.607 36.152 C 297.569 36.383,298.968 37.575,299.409 38.539 C 299.546 38.838,299.824 39.290,300.028 39.542 C 300.545 40.181,300.637 41.188,300.649 46.333 C 300.663 52.430,300.644 52.471,297.614 52.620 C 294.137 52.792,294.116 52.762,294.000 47.410 C 293.920 43.717,293.902 43.551,293.532 43.076 C 293.321 42.805,292.981 42.321,292.776 42.000 C 292.416 41.433,292.368 41.414,291.078 41.309 C 289.340 41.168,286.649 41.433,286.390 41.770 C 285.836 42.492,285.473 44.698,285.418 47.678 C 285.338 52.000,284.888 52.667,282.048 52.667 C 278.458 52.667,278.333 52.375,278.336 44.006 C 278.338 36.975,278.329 37.047,279.336 36.368 C 280.092 35.858,284.051 35.858,284.614 36.368 C 284.997 36.716,286.905 36.316,288.284 35.598 C 289.464 34.984,293.631 34.959,294.918 35.559 M319.833 35.572 C 320.521 35.796,321.530 36.105,322.076 36.259 C 323.561 36.677,324.110 37.402,324.621 39.618 C 324.948 41.033,323.980 41.465,320.355 41.523 C 317.672 41.566,317.570 41.541,317.240 40.752 C 316.964 40.091,316.602 39.999,314.271 40.002 C 311.155 40.005,310.684 40.283,312.200 41.220 L 312.981 41.703 317.366 41.832 C 322.470 41.982,322.489 41.987,323.898 43.508 C 325.054 44.757,325.282 45.242,325.346 46.583 C 325.448 48.703,325.363 49.286,324.871 49.869 C 324.616 50.170,324.298 50.633,324.164 50.897 C 324.030 51.161,323.657 51.496,323.335 51.643 C 323.013 51.789,322.544 52.074,322.293 52.276 C 321.176 53.172,308.782 53.373,307.167 52.521 C 306.754 52.303,306.117 51.973,305.750 51.786 C 304.998 51.402,304.333 50.854,304.333 50.616 C 304.333 50.529,304.071 50.167,303.750 49.811 C 303.234 49.240,303.167 49.061,303.167 48.259 C 303.167 46.786,303.486 46.548,305.833 46.269 C 306.887 46.143,307.450 46.031,307.083 46.020 C 306.294 45.996,305.347 45.550,305.096 45.084 C 304.997 44.901,304.790 44.559,304.636 44.324 C 302.802 41.529,304.372 36.018,307.008 36.002 C 307.150 36.001,307.347 35.919,307.446 35.821 C 308.260 35.006,317.531 34.820,319.833 35.572 M344.004 35.600 C 344.419 35.791,345.276 36.046,345.908 36.165 C 347.696 36.502,348.601 37.464,349.423 39.900 L 350.037 41.716 349.971 44.566 C 349.919 46.824,349.850 47.503,349.637 47.833 C 349.489 48.063,349.245 48.681,349.096 49.208 C 348.738 50.471,348.050 51.236,346.951 51.594 C 346.474 51.749,345.968 51.976,345.827 52.098 C 344.567 53.192,333.390 53.450,331.530 52.428 C 330.927 52.097,330.412 51.851,329.386 51.404 C 328.467 51.004,328.007 50.375,327.750 49.167 C 327.682 48.846,327.474 48.284,327.289 47.917 C 326.991 47.330,326.950 46.916,326.938 44.417 C 326.914 39.333,328.209 36.667,330.943 36.169 C 331.570 36.055,332.271 35.844,332.500 35.699 C 333.545 35.039,342.620 34.960,344.004 35.600 M367.608 35.529 C 367.778 35.682,368.342 35.967,368.862 36.161 C 370.720 36.855,371.344 38.087,371.393 41.157 C 371.435 43.798,370.897 44.269,368.011 44.120 C 365.493 43.990,364.500 43.417,364.500 42.094 C 364.500 41.535,363.751 41.297,362.182 41.358 C 359.502 41.463,359.364 41.740,359.346 47.047 C 359.328 52.476,359.305 52.513,356.012 52.632 C 352.562 52.757,352.669 53.039,352.668 43.804 L 352.667 37.026 353.111 36.497 L 353.555 35.969 355.903 36.078 C 360.358 36.285,360.140 36.300,361.333 35.699 L 362.417 35.153 364.858 35.202 C 366.860 35.241,367.355 35.300,367.608 35.529 M389.750 35.616 C 390.208 35.817,391.005 36.063,391.520 36.164 C 392.064 36.271,392.589 36.491,392.770 36.689 C 392.942 36.877,393.339 37.283,393.652 37.593 C 394.656 38.587,394.694 40.850,393.714 41.247 C 392.096 41.902,386.667 41.456,386.667 40.669 C 386.667 40.095,386.104 39.971,383.751 40.029 C 381.274 40.090,381.202 40.115,381.497 40.825 C 381.804 41.567,382.386 41.670,387.167 41.830 C 391.857 41.987,392.555 42.109,392.973 42.846 C 393.125 43.114,393.371 43.373,393.520 43.421 C 395.472 44.052,395.221 50.423,393.200 51.566 C 392.769 51.809,392.227 52.159,391.995 52.343 C 391.272 52.916,389.706 53.030,383.458 52.965 C 377.383 52.901,377.003 52.859,376.250 52.175 C 376.067 52.008,375.730 51.815,375.502 51.745 C 374.091 51.316,373.167 49.973,373.167 48.352 C 373.167 46.865,373.648 46.346,375.050 46.321 C 376.059 46.303,377.456 46.050,376.703 46.021 C 375.805 45.987,375.064 45.590,374.873 45.042 C 374.779 44.771,374.460 44.324,374.166 44.049 C 373.002 42.961,373.013 39.212,374.185 37.854 C 374.496 37.494,374.876 37.016,375.031 36.791 C 375.205 36.537,375.615 36.301,376.114 36.166 C 376.556 36.046,377.000 35.885,377.101 35.807 C 378.113 35.031,388.069 34.881,389.750 35.616 M263.208 40.118 C 262.834 40.190,262.722 40.567,262.963 40.946 C 263.586 41.925,268.000 41.529,268.000 40.494 C 268.000 40.048,264.853 39.801,263.208 40.118 M336.035 41.309 C 335.165 41.377,334.603 41.499,334.517 41.638 C 333.923 42.603,333.911 45.464,334.499 46.211 C 335.154 47.043,341.428 47.154,342.397 46.350 C 343.070 45.791,342.993 42.243,342.294 41.561 C 342.038 41.311,338.062 41.152,336.035 41.309 M231.873 43.774 C 231.371 43.985,231.332 44.456,231.739 45.376 L 232.140 46.283 233.278 46.390 C 233.904 46.449,236.601 46.498,239.271 46.499 C 244.763 46.500,244.625 46.532,244.382 45.303 C 244.204 44.406,244.113 44.382,240.750 44.345 C 238.407 44.320,233.158 43.957,232.417 43.769 C 232.233 43.723,231.989 43.725,231.873 43.774 M310.077 46.225 C 310.631 46.392,310.756 46.513,310.851 46.977 C 311.040 47.901,311.099 47.917,314.300 47.917 C 317.384 47.917,318.290 47.756,317.523 47.346 C 317.116 47.128,314.862 46.837,313.566 46.835 C 312.982 46.834,312.472 46.703,311.933 46.417 C 311.370 46.117,310.905 46.004,310.283 46.013 L 309.417 46.026 310.077 46.225 M379.782 46.295 C 379.982 46.454,380.198 46.795,380.261 47.054 C 380.441 47.792,380.942 47.899,384.250 47.908 C 388.630 47.920,389.202 47.362,385.184 46.995 C 382.466 46.747,380.968 46.492,380.711 46.235 C 380.582 46.106,380.238 46.002,379.946 46.004 L 379.417 46.007 379.782 46.295 " stroke="none" fill="#04cc04" fill-rule="evenodd"></path><path id="path4" d="M229.250 28.911 C 229.158 28.945,228.734 29.021,228.307 29.078 C 227.740 29.154,227.368 29.335,226.932 29.747 C 226.603 30.057,226.188 30.357,226.011 30.413 C 225.834 30.469,225.524 30.856,225.322 31.273 C 225.120 31.690,224.787 32.212,224.583 32.433 C 223.848 33.226,223.697 38.704,224.375 39.954 C 225.663 42.329,226.012 42.622,227.917 42.916 C 229.891 43.221,229.476 43.418,226.455 43.606 C 223.916 43.764,223.833 43.851,223.834 46.367 C 223.835 48.569,224.021 49.381,224.660 49.980 C 224.916 50.220,225.216 50.592,225.327 50.807 C 225.438 51.022,225.878 51.346,226.306 51.526 C 226.733 51.707,227.459 52.037,227.918 52.260 C 229.217 52.891,230.690 52.990,238.917 52.992 C 247.061 52.995,248.117 52.911,248.885 52.202 C 249.086 52.017,249.532 51.749,249.876 51.607 C 250.252 51.452,250.637 51.120,250.843 50.772 C 251.030 50.454,251.360 50.078,251.577 49.936 C 252.829 49.116,252.792 42.130,251.529 40.833 C 251.192 40.488,250.783 40.011,250.620 39.773 C 250.422 39.485,250.015 39.250,249.409 39.074 C 248.907 38.928,248.539 38.739,248.592 38.653 C 248.769 38.366,249.581 38.033,250.407 37.909 C 252.390 37.612,253.112 33.572,251.430 32.178 C 251.272 32.046,250.993 31.647,250.811 31.290 C 250.585 30.848,250.285 30.561,249.865 30.389 C 249.527 30.249,249.063 29.959,248.833 29.744 C 248.040 28.999,247.442 28.952,238.167 28.898 C 233.354 28.870,229.342 28.876,229.250 28.911 M247.500 30.355 C 248.188 30.688,249.012 31.046,249.333 31.150 C 250.057 31.386,251.336 34.038,251.334 35.300 C 251.333 36.389,249.700 36.838,246.693 36.576 L 245.368 36.460 244.976 35.688 C 244.555 34.861,244.699 34.936,242.079 34.174 C 240.395 33.684,235.051 33.680,233.667 34.167 C 233.162 34.344,232.613 34.492,232.446 34.495 C 231.478 34.512,230.897 36.009,231.351 37.314 C 231.675 38.243,232.081 38.334,236.636 38.502 C 239.668 38.614,240.953 38.724,241.503 38.920 C 241.967 39.085,243.040 39.217,244.333 39.266 C 247.476 39.386,249.778 39.905,250.112 40.569 C 250.254 40.852,250.577 41.308,250.830 41.583 C 252.039 42.901,252.057 47.968,250.857 49.239 C 250.592 49.520,250.272 49.965,250.146 50.228 C 249.961 50.613,249.692 50.776,248.750 51.072 C 248.108 51.273,247.361 51.583,247.090 51.761 C 246.397 52.214,231.260 52.257,230.417 51.807 C 230.142 51.661,229.204 51.380,228.333 51.182 C 226.402 50.744,226.546 50.837,225.578 49.419 C 224.265 47.498,224.204 44.814,225.467 44.605 C 226.860 44.375,229.295 44.485,229.599 44.792 C 229.758 44.952,230.111 45.249,230.384 45.451 C 230.656 45.654,230.962 45.984,231.064 46.185 C 231.596 47.234,231.636 47.240,238.019 47.309 C 244.335 47.376,244.817 47.322,245.631 46.454 L 245.979 46.083 245.614 45.175 C 245.024 43.704,244.818 43.637,240.438 43.483 C 238.027 43.399,236.462 43.269,235.917 43.108 C 234.683 42.743,232.004 42.366,229.860 42.256 C 226.878 42.103,226.386 41.769,225.340 39.194 C 224.413 36.912,225.215 31.899,226.625 31.158 C 226.896 31.016,227.485 30.669,227.934 30.386 C 228.383 30.104,228.862 29.831,229.000 29.779 C 229.137 29.728,233.075 29.700,237.750 29.718 L 246.250 29.750 247.500 30.355 M242.191 35.343 C 244.068 35.535,244.128 35.563,244.422 36.370 C 244.532 36.671,244.675 37.043,244.741 37.197 C 244.977 37.752,243.979 38.052,242.349 37.915 C 241.561 37.849,239.154 37.742,237.000 37.676 C 232.507 37.540,232.248 37.476,232.077 36.462 C 232.016 36.099,232.036 35.730,232.123 35.643 C 232.558 35.208,238.994 35.016,242.191 35.343 M260.833 35.404 C 259.845 35.781,259.293 35.954,258.121 36.252 C 257.035 36.528,256.956 36.584,256.019 37.740 C 254.620 39.465,254.586 39.615,254.586 44.000 C 254.586 48.074,254.674 48.614,255.495 49.556 C 255.747 49.846,256.081 50.332,256.236 50.635 C 256.434 51.021,256.754 51.284,257.301 51.510 C 257.731 51.688,258.196 51.907,258.333 51.998 C 259.791 52.961,259.441 52.917,265.583 52.917 C 271.095 52.917,271.268 52.907,271.917 52.553 C 272.283 52.352,273.039 51.968,273.597 51.697 C 275.721 50.668,276.769 47.910,275.513 46.654 L 275.026 46.167 272.888 46.168 C 270.212 46.169,269.577 46.328,269.215 47.086 C 268.860 47.832,268.764 47.860,266.333 47.955 C 262.947 48.088,261.192 47.495,261.365 46.278 L 261.417 45.917 268.305 45.917 L 275.194 45.917 275.615 45.428 L 276.036 44.939 275.961 42.095 C 275.878 38.943,275.781 38.546,274.866 37.640 C 274.527 37.305,274.118 36.885,273.957 36.708 C 273.795 36.531,273.269 36.297,272.786 36.189 C 272.304 36.081,271.542 35.807,271.093 35.580 C 270.111 35.083,262.037 34.945,260.833 35.404 M288.284 35.598 C 286.905 36.316,284.997 36.716,284.614 36.368 C 284.051 35.858,280.092 35.858,279.336 36.368 C 278.329 37.047,278.338 36.975,278.336 44.006 C 278.333 52.375,278.458 52.667,282.048 52.667 C 284.888 52.667,285.338 52.000,285.418 47.678 C 285.473 44.698,285.836 42.492,286.390 41.770 C 286.649 41.433,289.340 41.168,291.078 41.309 C 292.368 41.414,292.416 41.433,292.776 42.000 C 292.981 42.321,293.321 42.805,293.532 43.076 C 293.902 43.551,293.920 43.717,294.000 47.410 C 294.116 52.762,294.137 52.792,297.614 52.620 C 300.644 52.471,300.663 52.430,300.649 46.333 C 300.637 41.188,300.545 40.181,300.028 39.542 C 299.824 39.290,299.546 38.838,299.409 38.539 C 298.968 37.575,297.569 36.383,296.607 36.152 C 296.137 36.040,295.377 35.773,294.918 35.559 C 293.631 34.959,289.464 34.984,288.284 35.598 M308.271 35.412 C 307.916 35.538,307.544 35.722,307.446 35.821 C 307.347 35.919,307.150 36.001,307.008 36.002 C 304.372 36.018,302.802 41.529,304.636 44.324 C 304.790 44.559,304.997 44.901,305.096 45.084 C 305.347 45.550,306.294 45.996,307.083 46.020 C 307.450 46.031,306.887 46.143,305.833 46.269 C 303.486 46.548,303.167 46.786,303.167 48.259 C 303.167 49.061,303.234 49.240,303.750 49.811 C 304.071 50.167,304.333 50.529,304.333 50.616 C 304.333 50.854,304.998 51.402,305.750 51.786 C 306.117 51.973,306.754 52.303,307.167 52.521 C 308.782 53.373,321.176 53.172,322.293 52.276 C 322.544 52.074,323.013 51.789,323.335 51.643 C 323.657 51.496,324.030 51.161,324.164 50.897 C 324.298 50.633,324.616 50.170,324.871 49.869 C 326.029 48.498,325.537 45.279,323.898 43.508 C 322.489 41.987,322.470 41.982,317.366 41.832 L 312.981 41.703 312.200 41.220 C 310.684 40.283,311.155 40.005,314.271 40.002 C 316.602 39.999,316.964 40.091,317.240 40.752 C 317.570 41.541,317.672 41.566,320.355 41.523 C 323.980 41.465,324.948 41.033,324.621 39.618 C 324.110 37.402,323.561 36.677,322.076 36.259 C 321.530 36.105,320.521 35.796,319.833 35.572 C 318.310 35.074,309.557 34.953,308.271 35.412 M333.500 35.314 C 333.179 35.381,332.729 35.554,332.500 35.699 C 332.271 35.844,331.570 36.055,330.943 36.169 C 328.209 36.667,326.914 39.333,326.938 44.417 C 326.950 46.916,326.991 47.330,327.289 47.917 C 327.474 48.284,327.682 48.846,327.750 49.167 C 328.007 50.375,328.467 51.004,329.386 51.404 C 330.412 51.851,330.927 52.097,331.530 52.428 C 332.439 52.928,333.851 53.029,339.072 52.968 C 344.465 52.905,344.973 52.840,345.827 52.098 C 345.968 51.976,346.474 51.749,346.951 51.594 C 348.050 51.236,348.738 50.471,349.096 49.208 C 349.245 48.681,349.489 48.063,349.637 47.833 C 349.850 47.503,349.919 46.824,349.971 44.566 L 350.037 41.716 349.423 39.900 C 348.601 37.464,347.696 36.502,345.908 36.165 C 345.276 36.046,344.419 35.791,344.004 35.600 C 343.209 35.232,334.962 35.008,333.500 35.314 M361.333 35.699 C 360.140 36.300,360.358 36.285,355.903 36.078 L 353.555 35.969 353.111 36.497 L 352.667 37.026 352.668 43.804 C 352.669 53.039,352.562 52.757,356.012 52.632 C 359.305 52.513,359.328 52.476,359.346 47.047 C 359.364 41.740,359.502 41.463,362.182 41.358 C 363.751 41.297,364.500 41.535,364.500 42.094 C 364.500 43.417,365.493 43.990,368.011 44.120 C 370.897 44.269,371.435 43.798,371.393 41.157 C 371.344 38.087,370.720 36.855,368.862 36.161 C 368.342 35.967,367.778 35.682,367.608 35.529 C 367.355 35.300,366.860 35.241,364.858 35.202 L 362.417 35.153 361.333 35.699 M377.934 35.422 C 377.577 35.556,377.202 35.729,377.101 35.807 C 377.000 35.885,376.556 36.046,376.114 36.166 C 375.615 36.301,375.205 36.537,375.031 36.791 C 374.876 37.016,374.496 37.494,374.185 37.854 C 373.013 39.212,373.002 42.961,374.166 44.049 C 374.460 44.324,374.779 44.771,374.873 45.042 C 375.064 45.590,375.805 45.987,376.703 46.021 C 377.456 46.050,376.059 46.303,375.050 46.321 C 372.208 46.371,372.582 50.856,375.502 51.745 C 375.730 51.815,376.067 52.008,376.250 52.175 C 377.003 52.859,377.383 52.901,383.458 52.965 C 389.706 53.030,391.272 52.916,391.995 52.343 C 392.227 52.159,392.769 51.809,393.200 51.566 C 395.221 50.423,395.472 44.052,393.520 43.421 C 393.371 43.373,393.125 43.114,392.973 42.846 C 392.555 42.109,391.857 41.987,387.167 41.830 C 382.386 41.670,381.804 41.567,381.497 40.825 C 381.202 40.115,381.274 40.090,383.751 40.029 C 386.104 39.971,386.667 40.095,386.667 40.669 C 386.667 41.456,392.096 41.902,393.714 41.247 C 394.694 40.850,394.656 38.587,393.652 37.593 C 393.339 37.283,392.942 36.877,392.770 36.689 C 392.589 36.491,392.064 36.271,391.520 36.164 C 391.005 36.063,390.208 35.817,389.750 35.616 C 388.661 35.140,379.101 34.982,377.934 35.422 M271.667 36.829 C 272.779 37.057,273.300 37.243,273.417 37.452 C 273.508 37.616,273.859 38.023,274.195 38.356 C 274.997 39.150,275.165 39.831,275.166 42.303 C 275.167 45.317,275.999 45.000,268.091 45.000 C 264.389 45.000,261.239 45.047,261.091 45.104 C 260.268 45.419,260.288 47.205,261.124 48.073 C 261.692 48.663,264.774 48.988,267.586 48.755 L 269.083 48.631 269.757 47.899 L 270.430 47.167 272.611 47.167 C 275.150 47.167,275.272 47.228,275.108 48.424 C 274.957 49.528,273.618 50.847,272.333 51.157 C 271.829 51.278,271.117 51.532,270.750 51.721 C 270.149 52.030,269.711 52.071,266.333 52.132 C 262.347 52.205,261.694 52.136,259.667 51.424 C 257.346 50.609,257.279 50.565,256.675 49.448 C 256.369 48.881,255.960 48.242,255.767 48.028 C 255.221 47.423,255.225 40.569,255.773 39.972 C 255.969 39.758,256.282 39.278,256.469 38.905 C 256.777 38.291,257.986 37.019,258.292 36.987 C 258.361 36.980,259.092 36.878,259.917 36.761 C 262.484 36.396,269.759 36.438,271.667 36.829 M295.167 36.752 C 296.536 36.968,296.806 37.067,297.167 37.476 C 297.396 37.737,297.789 38.082,298.040 38.243 C 298.329 38.429,298.564 38.784,298.678 39.210 C 298.778 39.580,299.052 40.303,299.287 40.817 C 299.720 41.762,300.089 49.123,299.768 50.403 C 299.609 51.040,298.346 51.362,296.549 51.224 C 294.777 51.088,294.884 51.356,294.796 46.833 C 294.719 42.885,294.662 42.561,293.878 41.578 C 293.024 40.508,290.930 40.122,288.000 40.495 C 286.134 40.732,285.793 40.916,285.270 41.964 C 285.053 42.396,284.736 43.012,284.563 43.333 C 284.292 43.838,284.243 44.369,284.199 47.287 L 284.148 50.657 283.699 51.011 C 283.308 51.318,283.075 51.357,281.892 51.307 C 279.662 51.213,279.833 51.827,279.833 43.918 L 279.833 37.220 280.258 37.027 C 280.491 36.920,281.341 36.833,282.145 36.833 C 283.740 36.833,283.889 36.904,284.509 37.958 C 284.912 38.642,284.963 38.638,285.861 37.847 C 287.307 36.575,291.172 36.120,295.167 36.752 M320.045 36.732 C 321.914 36.953,322.126 37.052,323.208 38.222 C 323.552 38.593,323.615 40.151,323.300 40.467 C 323.165 40.602,322.388 40.667,320.895 40.667 L 318.691 40.667 318.304 40.187 C 317.699 39.438,317.218 39.280,315.305 39.199 C 311.142 39.025,309.908 39.458,310.210 40.985 C 310.522 42.564,310.460 42.546,315.912 42.684 C 321.194 42.817,321.528 42.859,322.278 43.480 C 322.568 43.720,322.983 44.039,323.200 44.188 C 324.829 45.313,324.241 50.714,322.450 51.067 C 322.157 51.125,321.504 51.377,321.000 51.628 L 320.083 52.083 314.583 52.083 C 309.562 52.083,309.033 52.057,308.500 51.776 C 308.179 51.607,307.354 51.300,306.667 51.093 C 305.427 50.719,305.413 50.708,304.984 49.816 C 303.882 47.524,304.165 47.167,307.084 47.167 C 308.772 47.167,308.791 47.171,309.550 47.751 C 311.621 49.332,318.986 49.226,319.303 47.610 C 319.562 46.297,316.424 45.495,309.750 45.170 C 308.192 45.094,306.900 45.025,306.881 45.016 C 306.861 45.007,306.561 44.733,306.214 44.406 C 305.867 44.079,305.463 43.702,305.315 43.568 C 304.974 43.258,304.792 41.420,304.942 39.802 C 305.100 38.104,306.185 36.925,307.750 36.752 C 308.300 36.691,308.825 36.615,308.917 36.584 C 309.381 36.424,318.462 36.545,320.045 36.732 M345.167 36.874 C 348.136 37.416,348.751 38.844,348.634 44.924 C 348.544 49.602,348.075 50.548,345.565 51.115 C 344.933 51.258,344.117 51.534,343.750 51.729 C 342.812 52.228,333.875 52.281,333.156 51.793 C 332.921 51.633,332.133 51.352,331.406 51.168 C 328.620 50.465,328.242 49.593,328.262 43.917 C 328.277 39.629,328.395 39.079,329.542 37.949 L 330.417 37.089 332.250 36.801 C 334.519 36.444,343.080 36.493,345.167 36.874 M367.736 36.747 C 369.968 37.280,371.225 40.108,370.259 42.422 L 370.017 43.000 368.566 43.000 C 366.690 43.000,365.677 42.575,365.227 41.601 C 364.751 40.569,363.311 40.167,361.271 40.495 C 358.699 40.909,358.628 41.066,358.508 46.612 C 358.458 48.919,358.354 50.869,358.278 50.945 C 357.961 51.261,353.954 51.224,353.719 50.903 C 353.415 50.487,353.397 37.337,353.700 37.033 C 354.256 36.477,357.408 36.870,357.986 37.567 C 358.279 37.920,359.555 37.733,360.299 37.227 C 360.611 37.015,361.141 36.797,361.475 36.741 C 361.810 36.685,362.158 36.614,362.250 36.583 C 362.742 36.416,366.866 36.539,367.736 36.747 M389.743 36.758 C 391.587 36.977,391.955 37.069,392.167 37.365 C 392.304 37.557,392.657 37.970,392.951 38.283 C 393.368 38.727,393.496 39.023,393.534 39.631 L 393.583 40.411 392.833 40.526 C 390.968 40.814,388.917 40.692,388.316 40.257 C 387.001 39.306,386.853 39.263,384.634 39.197 C 380.563 39.075,379.266 39.574,379.695 41.093 C 380.088 42.484,380.393 42.563,385.835 42.691 C 390.611 42.803,391.567 42.930,392.099 43.517 C 392.274 43.711,392.688 44.007,393.019 44.176 C 393.755 44.552,393.833 44.861,393.833 47.396 C 393.833 50.172,393.815 50.197,390.750 51.619 L 389.750 52.083 384.234 52.083 C 380.421 52.083,378.645 52.026,378.484 51.897 C 378.213 51.681,376.276 51.000,375.933 51.000 C 375.806 51.000,375.545 50.831,375.354 50.625 C 375.163 50.419,374.780 50.007,374.503 49.710 C 374.088 49.264,374.000 49.029,374.000 48.368 C 374.000 47.204,374.081 47.167,376.608 47.167 L 378.816 47.167 379.260 47.749 C 379.912 48.603,380.570 48.731,384.363 48.741 C 387.416 48.749,387.674 48.726,388.100 48.408 C 390.388 46.700,386.052 45.167,378.937 45.167 C 376.368 45.167,375.641 44.725,374.548 42.501 C 373.974 41.334,374.051 40.602,374.939 38.765 C 375.787 37.012,375.776 37.019,377.833 36.668 C 379.271 36.422,387.430 36.483,389.743 36.758 M262.640 39.387 C 260.884 39.785,260.009 41.458,261.106 42.321 C 261.727 42.810,268.378 42.852,269.333 42.374 C 270.282 41.899,270.013 40.040,268.920 39.516 C 268.235 39.188,263.911 39.099,262.640 39.387 M267.625 40.105 C 268.800 40.420,267.744 41.312,266.040 41.444 C 264.024 41.599,262.843 41.240,262.836 40.470 C 262.832 40.067,266.454 39.791,267.625 40.105 M335.553 40.496 C 334.418 40.626,333.752 40.969,333.579 41.513 C 333.517 41.708,333.287 42.133,333.067 42.457 C 332.320 43.557,332.654 45.603,333.788 46.872 C 335.241 48.497,340.906 48.653,342.802 47.119 C 344.025 46.130,344.648 43.934,344.018 42.833 C 343.835 42.512,343.574 42.023,343.439 41.747 C 342.802 40.439,339.982 39.992,335.553 40.496 M342.294 41.561 C 342.993 42.243,343.070 45.791,342.397 46.350 C 341.428 47.154,335.154 47.043,334.499 46.211 C 333.911 45.464,333.923 42.603,334.517 41.638 C 334.807 41.168,341.819 41.098,342.294 41.561 M235.500 44.086 C 237.012 44.213,239.375 44.330,240.750 44.345 C 244.113 44.382,244.204 44.406,244.382 45.303 C 244.625 46.532,244.763 46.500,239.271 46.499 C 236.601 46.498,233.904 46.449,233.278 46.390 L 232.140 46.283 231.739 45.376 C 231.222 44.207,231.504 43.539,232.417 43.769 C 232.600 43.816,233.987 43.958,235.500 44.086 M311.933 46.417 C 312.472 46.703,312.982 46.834,313.566 46.835 C 314.862 46.837,317.116 47.128,317.523 47.346 C 318.290 47.756,317.384 47.917,314.300 47.917 C 311.099 47.917,311.040 47.901,310.851 46.977 C 310.756 46.513,310.631 46.392,310.077 46.225 L 309.417 46.026 310.283 46.013 C 310.905 46.004,311.370 46.117,311.933 46.417 M380.711 46.235 C 380.968 46.492,382.466 46.747,385.184 46.995 C 389.202 47.362,388.630 47.920,384.250 47.908 C 380.942 47.899,380.441 47.792,380.261 47.054 C 380.198 46.795,379.982 46.454,379.782 46.295 L 379.417 46.007 379.946 46.004 C 380.238 46.002,380.582 46.106,380.711 46.235 M109.349 72.888 C 108.057 73.231,107.303 75.341,107.833 77.126 C 108.096 78.013,108.119 78.783,107.925 80.257 C 107.790 81.288,108.215 82.587,108.862 83.120 C 109.307 83.487,111.139 83.667,114.439 83.667 C 119.195 83.667,119.791 83.482,120.618 81.747 L 120.862 81.235 121.494 81.826 C 123.411 83.619,123.491 83.648,126.583 83.647 C 129.847 83.647,129.860 83.642,131.870 81.922 C 132.104 81.721,132.155 81.401,132.143 80.186 C 132.136 79.366,132.177 78.619,132.234 78.525 C 132.486 78.118,131.809 77.040,130.949 76.480 L 130.083 75.917 127.097 75.861 C 123.019 75.785,121.770 76.282,121.095 78.246 L 120.879 78.873 120.760 78.395 C 120.694 78.132,120.460 77.679,120.239 77.389 C 119.866 76.898,119.855 76.830,120.085 76.389 C 120.833 74.955,120.235 73.348,118.794 72.920 C 117.724 72.603,110.518 72.578,109.349 72.888 M197.542 72.964 C 196.550 73.503,196.554 73.481,196.656 78.408 L 196.750 82.899 197.333 83.239 C 198.862 84.131,200.539 83.546,201.007 81.956 L 201.265 81.083 202.852 81.036 C 205.121 80.968,205.632 81.169,206.195 82.349 C 207.304 84.675,210.156 84.024,209.916 81.500 C 209.790 80.172,209.789 80.045,209.867 76.410 C 209.948 72.615,210.208 72.763,203.333 72.710 C 198.582 72.673,198.032 72.697,197.542 72.964 M230.371 72.778 C 229.999 72.928,229.667 73.792,229.664 74.617 C 229.660 75.907,229.724 75.880,226.558 75.900 C 223.452 75.918,223.044 76.026,222.417 76.988 C 221.993 77.637,221.966 77.633,221.438 76.836 C 220.855 75.955,220.657 75.917,216.650 75.917 C 212.767 75.917,213.027 75.835,212.000 77.372 C 211.346 78.352,210.952 81.333,211.476 81.333 C 211.555 81.333,211.895 81.749,212.232 82.256 C 213.021 83.444,213.273 83.532,216.167 83.625 C 219.420 83.729,220.352 83.548,221.286 82.631 L 222.000 81.931 222.712 82.629 C 223.747 83.645,226.296 84.003,228.472 83.439 C 229.220 83.245,229.451 83.246,230.035 83.448 C 230.934 83.757,232.364 83.593,232.782 83.131 C 233.057 82.827,233.083 82.400,233.083 78.163 L 233.083 73.527 232.679 73.097 C 232.284 72.677,231.049 72.506,230.371 72.778 M248.281 72.836 C 247.596 73.042,247.368 73.282,246.870 74.319 C 245.842 76.464,244.949 76.962,243.484 76.208 C 242.767 75.840,237.500 75.687,236.417 76.003 C 234.864 76.456,234.333 77.409,234.333 79.745 L 234.333 81.507 235.242 82.445 C 236.300 83.537,236.667 83.642,239.500 83.655 C 242.461 83.670,242.901 83.570,243.891 82.659 L 244.750 81.868 244.716 80.809 C 244.683 79.742,244.875 78.477,245.202 77.619 L 245.379 77.154 245.714 77.702 C 246.223 78.535,246.496 79.772,246.498 81.263 C 246.501 83.092,247.378 83.904,248.900 83.483 C 250.024 83.173,250.191 82.902,250.277 81.244 C 250.371 79.454,250.661 78.694,251.508 78.013 C 252.543 77.182,252.498 76.342,251.390 75.802 C 250.755 75.493,250.740 75.246,251.340 74.997 C 252.393 74.561,252.573 73.318,251.655 72.827 C 251.293 72.633,248.936 72.640,248.281 72.836 M253.871 72.778 C 253.645 72.870,253.167 73.697,253.167 73.999 C 253.167 74.731,254.880 75.291,255.909 74.896 C 256.681 74.600,256.690 73.070,255.922 72.775 C 255.596 72.650,254.185 72.652,253.871 72.778 M288.167 72.784 C 287.475 73.037,287.167 73.549,287.167 74.446 C 287.167 75.860,286.960 75.976,284.625 75.873 C 282.329 75.772,281.674 75.875,280.998 76.444 C 280.386 76.959,279.466 76.898,278.641 76.288 C 277.509 75.450,271.432 75.684,270.335 76.608 C 269.124 77.627,268.842 82.333,269.992 82.333 C 270.075 82.333,270.410 82.586,270.737 82.894 C 271.913 84.003,277.523 84.012,278.677 82.907 C 279.267 82.341,280.397 82.299,280.833 82.826 C 281.424 83.539,281.735 83.584,285.910 83.559 L 289.904 83.535 290.285 83.091 C 290.662 82.653,290.667 82.595,290.667 78.170 L 290.667 73.692 290.235 73.179 C 289.806 72.669,288.937 72.503,288.167 72.784 M118.662 73.473 C 120.061 73.912,120.303 75.585,119.082 76.376 C 118.374 76.834,118.367 76.905,119.004 77.168 C 120.998 77.994,120.665 81.930,118.521 82.878 C 117.438 83.357,110.704 83.225,109.700 82.704 C 108.742 82.207,108.405 81.497,108.642 80.471 C 108.902 79.344,108.882 78.348,108.583 77.500 C 108.172 76.335,108.380 74.112,108.943 73.645 C 109.595 73.104,117.064 72.972,118.662 73.473 M208.019 73.335 C 209.473 73.608,209.836 75.056,209.230 78.166 C 208.935 79.682,208.933 79.822,209.192 80.519 C 209.820 82.211,209.280 83.296,207.911 83.091 C 207.092 82.968,206.966 82.845,206.697 81.902 C 206.356 80.705,206.100 80.591,203.623 80.528 C 200.815 80.456,200.586 80.576,200.249 82.284 C 200.133 82.870,199.888 83.002,198.842 83.044 C 197.595 83.094,197.591 83.079,197.529 78.166 L 197.475 73.844 198.029 73.506 C 198.660 73.121,206.192 72.992,208.019 73.335 M232.395 73.647 C 232.707 73.917,232.762 82.461,232.453 82.769 C 231.881 83.341,230.082 83.060,229.625 82.328 C 229.350 81.888,228.667 81.887,228.667 82.327 C 228.667 82.885,228.040 83.079,226.250 83.078 C 223.493 83.076,222.483 82.247,222.318 79.849 L 222.219 78.417 222.869 77.556 C 223.807 76.312,227.488 75.799,228.888 76.716 C 229.564 77.159,230.167 76.205,230.167 74.693 C 230.167 73.259,231.320 72.718,232.395 73.647 M251.580 73.542 C 251.877 73.962,251.637 74.262,250.523 74.867 C 249.860 75.227,249.858 75.604,250.516 75.966 C 252.067 76.818,252.071 76.994,250.560 77.818 C 249.657 78.311,249.343 79.091,249.337 80.854 C 249.332 82.280,249.188 82.770,248.712 82.987 C 247.791 83.407,247.341 82.594,247.334 80.500 C 247.331 79.279,247.087 78.466,246.456 77.572 L 245.934 76.830 246.623 76.123 C 247.089 75.645,247.375 75.164,247.507 74.635 C 247.813 73.405,248.107 73.257,250.366 73.193 C 251.177 73.171,251.353 73.221,251.580 73.542 M289.823 73.572 C 290.203 73.976,290.204 73.990,290.143 78.235 C 290.069 83.376,290.123 83.239,288.277 82.951 C 287.426 82.819,286.761 82.827,285.654 82.984 C 283.750 83.253,282.094 83.097,281.612 82.603 C 280.460 81.421,279.324 81.323,278.308 82.319 C 277.119 83.484,272.423 83.544,271.104 82.410 C 269.761 81.256,269.833 81.405,269.833 79.793 C 269.833 76.871,270.787 76.260,275.197 76.358 L 277.817 76.417 278.457 77.042 C 279.339 77.902,280.607 77.959,281.195 77.164 C 281.733 76.437,282.537 76.273,284.924 76.403 C 287.387 76.537,287.614 76.402,287.699 74.753 L 287.750 73.758 288.500 73.471 C 289.458 73.105,289.379 73.099,289.823 73.572 M255.989 73.646 C 256.229 74.094,255.719 74.500,254.917 74.500 C 254.114 74.500,253.605 74.094,253.845 73.646 C 253.976 73.399,254.203 73.333,254.917 73.333 C 255.631 73.333,255.857 73.399,255.989 73.646 M112.643 74.787 C 111.706 74.886,111.428 75.293,111.837 75.965 L 112.162 76.500 113.979 76.500 C 115.468 76.500,115.858 76.447,116.139 76.208 C 117.338 75.187,115.587 74.475,112.643 74.787 M114.711 75.451 C 114.506 75.490,114.131 75.491,113.877 75.453 C 113.624 75.415,113.792 75.382,114.250 75.381 C 114.708 75.380,114.916 75.411,114.711 75.451 M200.765 76.013 C 200.202 76.681,200.220 77.079,200.842 77.701 L 201.351 78.210 203.618 78.133 L 205.885 78.056 206.368 77.516 L 206.850 76.976 206.542 76.446 C 206.139 75.753,205.291 75.531,202.973 75.513 L 201.196 75.500 200.765 76.013 M133.276 76.376 L 132.801 76.840 132.859 79.811 C 132.930 83.468,133.117 83.804,134.945 83.554 C 136.099 83.395,136.261 83.145,136.391 81.322 C 136.518 79.527,136.689 79.255,137.772 79.122 C 139.323 78.931,139.966 79.745,139.990 81.933 C 140.005 83.223,140.777 83.782,142.140 83.490 C 143.486 83.202,143.581 82.999,143.582 80.425 L 143.583 78.217 142.944 77.483 C 141.430 75.746,142.156 75.942,137.167 75.924 L 133.750 75.912 133.276 76.376 M146.209 75.996 C 144.993 76.284,144.803 76.771,144.800 79.602 C 144.796 83.397,145.323 83.775,150.417 83.634 C 153.469 83.549,153.663 83.483,154.168 82.366 L 154.531 81.562 155.024 82.023 C 155.295 82.276,155.663 82.529,155.842 82.586 C 156.020 82.643,156.167 82.757,156.167 82.840 C 156.167 83.799,163.323 84.027,164.700 83.113 C 165.706 82.444,166.030 81.518,165.965 79.500 C 165.854 76.083,165.608 75.917,160.667 75.917 C 155.897 75.917,155.623 76.052,154.910 78.750 L 154.601 79.917 154.311 79.000 C 154.151 78.496,154.016 77.844,154.010 77.551 C 153.996 76.785,153.393 76.165,152.495 75.992 C 151.583 75.816,146.955 75.819,146.209 75.996 M167.280 76.266 C 166.819 76.726,166.665 77.640,166.678 79.833 C 166.696 82.774,167.005 83.437,168.435 83.607 C 169.821 83.771,170.181 83.327,170.291 81.326 C 170.415 79.039,170.920 78.683,173.000 79.417 C 175.308 80.231,176.831 78.630,175.574 76.712 C 174.973 75.795,168.119 75.426,167.280 76.266 M178.917 76.026 C 177.716 76.465,177.031 77.737,177.315 79.000 C 177.426 79.493,177.425 80.000,177.313 80.523 C 177.042 81.786,178.120 83.240,179.528 83.513 C 180.535 83.707,184.794 83.699,185.500 83.501 C 187.349 82.983,188.186 80.505,187.075 78.833 C 186.862 78.512,186.639 78.025,186.580 77.750 C 186.386 76.845,186.126 76.324,185.769 76.121 C 185.296 75.853,179.605 75.775,178.917 76.026 M253.497 76.292 C 253.152 76.730,253.139 76.881,253.193 79.806 L 253.250 82.863 253.718 83.265 C 254.365 83.821,255.469 83.821,256.116 83.265 L 256.583 82.862 256.583 79.699 C 256.583 75.868,256.568 75.833,254.903 75.833 C 253.961 75.833,253.822 75.879,253.497 76.292 M258.841 75.994 C 257.880 76.235,257.833 76.409,257.833 79.753 C 257.833 83.224,257.890 83.367,259.343 83.554 C 260.624 83.719,261.090 83.308,261.230 81.893 C 261.435 79.810,261.458 79.753,262.241 79.373 C 264.051 78.494,265.000 79.151,265.000 81.283 C 265.000 82.723,265.033 82.881,265.409 83.258 C 265.986 83.834,267.282 83.838,267.948 83.265 L 268.415 82.863 268.416 80.379 C 268.417 76.477,267.663 75.706,264.036 75.904 C 261.241 76.057,261.169 76.058,260.250 75.948 C 259.792 75.894,259.158 75.914,258.841 75.994 M205.940 76.535 C 206.636 77.231,205.864 77.500,203.172 77.500 C 201.075 77.500,200.455 77.195,201.099 76.482 C 201.519 76.017,205.465 76.060,205.940 76.535 M130.660 77.244 C 131.122 77.699,131.500 78.201,131.500 78.361 C 131.500 78.895,131.122 79.487,130.684 79.639 L 130.250 79.790 130.700 80.001 C 131.658 80.451,131.612 81.097,130.553 82.090 L 129.611 82.975 128.196 83.093 C 125.656 83.304,123.878 83.077,123.167 82.450 C 122.834 82.157,122.363 81.767,122.121 81.583 C 121.767 81.316,121.675 81.102,121.658 80.500 C 121.598 78.455,121.620 78.369,122.441 77.491 C 123.452 76.410,123.741 76.341,127.035 76.382 L 129.821 76.417 130.660 77.244 M136.333 76.535 C 136.837 76.550,137.674 76.501,138.193 76.427 C 139.299 76.268,141.275 76.443,141.511 76.722 C 143.120 78.622,143.361 82.513,141.898 82.962 C 140.986 83.242,140.744 82.889,140.617 81.094 C 140.500 79.438,140.472 79.386,139.356 78.779 C 137.542 77.791,135.837 78.802,135.831 80.870 C 135.827 82.530,135.703 82.798,134.855 82.982 C 133.508 83.273,133.417 83.061,133.417 79.648 C 133.417 76.384,133.475 76.243,134.746 76.415 C 135.115 76.466,135.829 76.519,136.333 76.535 M152.265 76.521 C 153.157 76.746,153.227 76.861,153.662 78.812 C 154.491 82.534,153.988 83.083,149.750 83.083 C 146.119 83.083,145.012 82.434,145.362 80.511 C 145.451 80.020,145.446 79.420,145.350 78.992 C 145.096 77.862,145.554 76.820,146.420 76.559 C 147.272 76.302,151.292 76.276,152.265 76.521 M164.245 76.667 C 166.069 77.588,166.018 81.523,164.168 82.633 C 163.027 83.317,157.799 83.335,157.053 82.657 C 156.794 82.423,156.292 82.017,155.935 81.756 L 155.287 81.281 155.385 79.899 C 155.521 77.967,156.251 76.808,157.528 76.494 C 158.518 76.250,163.684 76.383,164.245 76.667 M170.667 76.541 C 170.987 76.535,171.813 76.482,172.500 76.422 C 174.010 76.290,174.738 76.583,175.243 77.525 C 175.930 78.809,174.678 79.475,172.942 78.750 C 172.061 78.382,170.745 78.422,170.338 78.829 C 169.941 79.226,169.876 79.509,169.774 81.313 C 169.677 83.027,169.545 83.195,168.424 83.033 C 167.380 82.883,167.371 82.854,167.350 79.479 C 167.330 76.352,167.404 76.234,169.250 76.452 C 169.708 76.506,170.346 76.546,170.667 76.541 M185.549 76.638 C 185.686 76.752,185.849 77.198,185.912 77.630 C 185.975 78.063,186.212 78.751,186.438 79.160 C 187.095 80.349,187.132 81.143,186.558 81.765 C 186.297 82.049,185.959 82.436,185.806 82.625 C 185.444 83.075,183.922 83.245,181.373 83.120 L 179.482 83.027 178.657 82.189 C 177.738 81.255,177.722 81.203,178.108 80.388 C 178.364 79.849,178.364 79.768,178.108 79.232 C 177.687 78.347,177.767 77.982,178.576 77.101 L 179.319 76.292 182.310 76.362 C 184.343 76.410,185.381 76.499,185.549 76.638 M219.783 76.507 C 221.239 76.822,222.071 78.596,221.180 79.486 C 220.913 79.754,220.902 79.831,221.103 80.032 C 221.232 80.160,221.405 80.502,221.488 80.791 C 222.183 83.216,214.383 84.191,212.770 81.881 C 211.897 80.633,212.170 77.366,213.200 76.729 C 213.822 76.345,218.334 76.192,219.783 76.507 M242.767 76.548 C 244.361 77.468,244.870 79.013,243.803 79.689 C 243.679 79.768,243.663 79.829,243.765 79.831 C 244.011 79.834,244.382 81.115,244.216 81.386 C 244.143 81.504,243.717 81.935,243.269 82.342 L 242.456 83.083 239.600 83.083 L 236.744 83.083 235.789 82.143 L 234.833 81.203 234.833 79.678 L 234.833 78.152 235.597 77.336 C 236.487 76.384,236.440 76.395,239.917 76.366 C 241.609 76.352,242.530 76.411,242.767 76.548 M255.905 76.595 C 256.183 76.873,256.273 81.582,256.018 82.497 C 255.865 83.047,254.442 83.347,254.014 82.919 C 253.603 82.508,253.515 77.009,253.913 76.611 C 254.275 76.248,255.548 76.238,255.905 76.595 M261.168 76.811 C 261.576 77.110,261.597 77.109,262.055 76.767 C 263.191 75.918,266.009 76.182,267.079 77.237 C 268.000 78.145,268.070 78.426,267.954 80.781 C 267.842 83.038,267.756 83.193,266.692 83.055 C 265.551 82.906,265.500 82.825,265.500 81.159 C 265.500 78.739,264.145 77.795,262.078 78.774 C 260.941 79.312,260.865 79.452,260.728 81.231 C 260.591 83.005,260.420 83.216,259.305 82.978 L 258.528 82.812 258.411 81.405 C 258.283 79.872,258.365 76.912,258.541 76.737 C 258.991 76.286,260.510 76.329,261.168 76.811 M159.570 77.669 C 157.820 78.211,157.653 80.221,159.272 81.257 C 161.710 82.817,164.147 80.198,162.337 77.963 C 162.031 77.586,160.400 77.412,159.570 77.669 M226.123 77.681 C 225.777 77.883,225.000 79.351,225.000 79.804 C 225.000 79.978,225.302 80.463,225.671 80.882 C 226.629 81.970,228.667 82.385,228.667 81.491 C 228.667 81.323,228.866 81.087,229.110 80.967 C 230.213 80.427,230.400 79.249,229.485 78.608 C 229.318 78.492,229.106 78.195,229.012 77.948 C 228.827 77.461,226.819 77.276,226.123 77.681 M284.076 77.813 C 283.034 78.287,282.405 79.533,282.818 80.305 C 283.376 81.347,286.500 82.543,286.500 81.714 C 286.500 81.533,286.658 81.242,286.850 81.068 C 287.786 80.221,287.805 79.573,286.931 78.190 C 286.420 77.379,285.344 77.237,284.076 77.813 M92.233 78.733 C 90.766 80.201,91.779 81.000,95.107 81.000 C 98.074 81.000,98.936 80.573,98.470 79.333 C 98.062 78.249,97.832 78.167,95.204 78.167 L 92.800 78.167 92.233 78.733 M161.685 78.433 C 162.202 78.577,162.576 79.728,162.262 80.209 C 161.495 81.378,158.152 80.612,158.707 79.394 C 159.105 78.522,160.447 78.088,161.685 78.433 M228.657 78.923 C 229.814 79.802,229.809 79.979,228.618 80.466 C 227.541 80.907,226.531 80.815,225.978 80.226 L 225.603 79.827 225.961 79.092 C 226.259 78.478,226.410 78.344,226.867 78.288 C 227.170 78.251,227.472 78.208,227.540 78.193 C 227.608 78.179,228.110 78.507,228.657 78.923 M286.096 78.583 C 287.390 79.111,287.157 80.549,285.752 80.708 C 283.676 80.942,282.447 79.626,284.001 78.833 C 284.355 78.652,284.693 78.426,284.753 78.329 C 284.864 78.150,285.184 78.210,286.096 78.583 M301.750 78.368 C 300.153 78.928,299.987 80.416,301.475 80.829 C 302.781 81.192,307.066 81.045,307.457 80.625 C 308.030 80.007,308.013 79.406,307.402 78.679 L 306.970 78.167 304.610 78.180 C 303.312 78.187,302.025 78.272,301.750 78.368 M126.438 78.587 C 126.385 78.726,126.077 78.996,125.754 79.186 C 124.906 79.687,124.861 81.167,125.681 81.591 C 126.776 82.157,127.818 81.807,128.165 80.755 C 128.272 80.430,128.516 80.081,128.706 79.979 C 129.026 79.808,128.987 79.763,128.196 79.400 C 127.725 79.183,127.246 78.855,127.130 78.670 C 126.881 78.271,126.574 78.234,126.438 78.587 M216.295 78.542 C 215.710 78.995,215.298 81.291,215.736 81.655 C 216.078 81.939,217.850 81.818,218.000 81.500 C 218.541 80.356,218.607 79.735,218.219 79.442 C 218.009 79.283,217.790 78.969,217.733 78.743 C 217.617 78.278,216.785 78.162,216.295 78.542 M239.333 78.554 C 239.333 78.815,238.714 79.404,238.277 79.559 C 237.552 79.816,238.435 81.794,239.301 81.853 C 240.359 81.924,241.096 81.513,241.235 80.773 C 241.294 80.458,241.455 80.106,241.593 79.992 C 241.809 79.813,241.742 79.723,241.131 79.367 C 240.738 79.139,240.262 78.813,240.073 78.643 C 239.670 78.281,239.333 78.241,239.333 78.554 M274.365 78.678 C 274.246 78.868,273.934 79.098,273.671 79.190 C 273.093 79.392,273.039 79.525,273.130 80.546 C 273.275 82.176,275.476 82.408,276.114 80.862 C 276.253 80.525,276.472 80.131,276.602 79.985 C 276.811 79.749,276.760 79.684,276.157 79.412 C 275.782 79.243,275.339 78.931,275.172 78.719 C 274.798 78.244,274.641 78.236,274.365 78.678 M97.828 79.376 C 98.330 80.269,97.803 80.500,95.261 80.500 C 92.517 80.500,91.809 80.163,92.657 79.261 C 92.954 78.944,93.163 78.918,95.282 78.929 L 97.583 78.941 97.828 79.376 M111.375 79.165 C 109.884 80.074,111.496 80.978,114.633 80.993 C 116.982 81.004,118.049 80.182,116.933 79.221 C 116.293 78.671,112.252 78.630,111.375 79.165 M307.261 79.417 C 307.443 79.694,307.439 79.805,307.237 80.077 C 306.703 80.798,301.167 80.553,301.167 79.808 C 301.167 78.974,306.738 78.616,307.261 79.417 M116.667 79.583 C 117.149 80.165,116.608 80.333,114.255 80.333 C 111.902 80.333,110.930 80.014,111.779 79.520 C 112.283 79.227,116.415 79.281,116.667 79.583 M278.583 79.661 C 278.266 79.792,278.270 79.806,278.667 79.965 C 279.110 80.143,279.445 79.982,279.259 79.681 C 279.131 79.473,279.044 79.471,278.583 79.661 M149.304 80.785 C 148.178 80.957,148.460 81.647,149.715 81.788 C 150.639 81.892,151.051 81.516,150.581 80.997 C 150.285 80.670,150.174 80.652,149.304 80.785 M181.864 80.928 C 181.025 81.521,182.194 82.086,183.193 81.570 C 183.681 81.317,183.689 81.297,183.379 81.080 C 182.824 80.691,182.277 80.636,181.864 80.928 " stroke="none" fill="#7dd57d" fill-rule="evenodd"></path></g></svg>